<svg xmlns="http://www.w3.org/2000/svg" width="30" height="30" viewBox="0 0 30 30" fill="none">
  <path d="M26.25 13.75H22.2875L25.4625 10.575C25.95 10.0875 25.95 9.3 25.4625 8.8125C24.975 8.325 24.175 8.325 23.6875 8.8125L18.75 13.75H16.25V11.25L21.1875 6.3125C21.675 5.825 21.675 5.025 21.1875 4.5375C20.7 4.05 19.9125 4.05 19.425 4.5375L16.25 7.7125V3.75C16.25 3.0625 15.6875 2.5 15 2.5C14.3125 2.5 13.75 3.0625 13.75 3.75V7.7125L10.575 4.5375C10.0875 4.05 9.3 4.05 8.8125 4.5375C8.325 5.025 8.325 5.825 8.8125 6.3125L13.75 11.25V13.75H11.25L6.3125 8.8125C5.825 8.325 5.025 8.325 4.5375 8.8125C4.05 9.3 4.05 10.0875 4.5375 10.575L7.7125 13.75H3.75C3.0625 13.75 2.5 14.3125 2.5 15C2.5 15.6875 3.0625 16.25 3.75 16.25H7.7125L4.5375 19.425C4.05 19.9125 4.05 20.7 4.5375 21.1875C5.025 21.675 5.825 21.675 6.3125 21.1875L11.25 16.25H13.75V18.75L8.8125 23.6875C8.325 24.175 8.325 24.975 8.8125 25.4625C9.3 25.95 10.0875 25.95 10.575 25.4625L13.75 22.2875V26.25C13.75 26.9375 14.3125 27.5 15 27.5C15.6875 27.5 16.25 26.9375 16.25 26.25V22.2875L19.425 25.4625C19.9125 25.95 20.7 25.95 21.1875 25.4625C21.675 24.975 21.675 24.175 21.1875 23.6875L16.25 18.75V16.25H18.75L23.6875 21.1875C24.175 21.675 24.975 21.675 25.4625 21.1875C25.95 20.7 25.95 19.9125 25.4625 19.425L22.2875 16.25H26.25C26.9375 16.25 27.5 15.6875 27.5 15C27.5 14.3125 26.9375 13.75 26.25 13.75Z" fill="#070E05"/>
</svg>