<svg xmlns="http://www.w3.org/2000/svg" width="24" height="24" viewBox="0 0 24 24" fill="none">
  <g clip-path="url(#clip0_430_12921)">
    <path d="M20.6252 8.6625H20.625H20.4V5.8125V5.81232C20.3987 4.69462 19.4929 3.78882 18.3752 3.7875H18.375L5.625 3.7875L5.62482 3.7875C4.50712 3.78882 3.60132 4.69462 3.6 5.81232V5.8125V8.6625H3.375H3.37482C1.42912 8.66485 -0.14765 10.2416 -0.15 12.1873V12.1875V17.4375V17.5875H0H0.6V20.0625V20.2125H0.75H2.625H2.775V20.0625V17.5875H21.225V20.0625V20.2125H21.375H23.25H23.4V20.0625V17.5875H24H24.15V17.4375V12.1875V12.1873C24.1476 10.2416 22.5709 8.66485 20.6252 8.6625ZM4.65 5.8125C4.65 5.27401 5.08651 4.8375 5.625 4.8375H18.375C18.9135 4.8375 19.35 5.27401 19.35 5.8125V8.6625H18.525V7.3125C18.525 6.60833 17.9542 6.0375 17.25 6.0375H13.875C13.1708 6.0375 12.6 6.60833 12.6 7.3125V8.6625H11.4V7.3125C11.4 6.60833 10.8292 6.0375 10.125 6.0375H6.75C6.04583 6.0375 5.475 6.60833 5.475 7.3125V8.6625H4.65V5.8125ZM17.475 7.3125V8.6625H13.65V7.3125C13.65 7.18825 13.7507 7.0875 13.875 7.0875H17.25C17.3743 7.0875 17.475 7.18825 17.475 7.3125ZM10.35 7.3125V8.6625H6.525V7.3125C6.525 7.18825 6.62575 7.0875 6.75 7.0875H10.125C10.2493 7.0875 10.35 7.18825 10.35 7.3125ZM1.725 19.1625H1.65V17.5875H1.725V19.1625ZM22.35 19.1625H22.275V17.5875H22.35V19.1625ZM23.1 16.5375H0.9V14.9625H23.1V16.5375ZM23.1 13.9125H0.9L0.9 12.1877C0.901547 10.8213 2.00883 9.71405 3.37517 9.7125H20.6248C21.9912 9.71405 23.0985 10.8213 23.1 12.1877V13.9125Z" fill="#676767" stroke="#676767" stroke-width="0.3"/>
  </g>
  <defs>
    <clipPath id="clip0_430_12921">
      <rect width="24" height="24" fill="white"/>
    </clipPath>
  </defs>
</svg>