<svg xmlns="http://www.w3.org/2000/svg" width="36" height="36" viewBox="0 0 36 36" fill="none">
  <path d="M11.4148 20.0853C11.467 20.1375 11.529 20.1789 11.5973 20.2072C11.6655 20.2355 11.7386 20.25 11.8125 20.25C11.8864 20.25 11.9595 20.2355 12.0278 20.2072C12.096 20.1789 12.158 20.1375 12.2103 20.0853L17.8353 14.4603C17.9408 14.3548 18 14.2117 18 14.0625C18 13.9133 17.9408 13.7702 17.8353 13.6648C17.7298 13.5593 17.5867 13.5 17.4375 13.5C17.2883 13.5 17.1453 13.5593 17.0398 13.6648L11.4148 19.2898C11.3625 19.342 11.3211 19.404 11.2928 19.4722C11.2646 19.5405 11.25 19.6136 11.25 19.6875C11.25 19.7614 11.2646 19.8345 11.2928 19.9028C11.3211 19.971 11.3625 20.033 11.4148 20.0853Z" fill="white"/>
  <path d="M17.0398 18.1648L14.7898 20.4148C14.7375 20.467 14.6961 20.529 14.6678 20.5972C14.6396 20.6655 14.625 20.7386 14.625 20.8125C14.625 20.8864 14.6396 20.9595 14.6678 21.0278C14.6961 21.096 14.7375 21.158 14.7898 21.2103C14.842 21.2625 14.904 21.3039 14.9722 21.3322C15.0405 21.3605 15.1136 21.375 15.1875 21.375C15.2614 21.375 15.3345 21.3605 15.4028 21.3322C15.471 21.3039 15.533 21.2625 15.5853 21.2103L17.8353 18.9603C17.9408 18.8548 18 18.7117 18 18.5625C18 18.4133 17.9408 18.2702 17.8353 18.1648C17.7298 18.0593 17.5867 18 17.4375 18C17.2883 18 17.1452 18.0593 17.0398 18.1648Z" fill="white"/>
  <path d="M11.25 16.3125C11.3239 16.3126 11.3971 16.2981 11.4653 16.2698C11.5336 16.2416 11.5956 16.2001 11.6478 16.1478L13.8978 13.8978C14.0033 13.7923 14.0625 13.6492 14.0625 13.5C14.0625 13.3508 14.0033 13.2077 13.8978 13.1023C13.7923 12.9968 13.6492 12.9375 13.5 12.9375C13.3508 12.9375 13.2078 12.9968 13.1023 13.1023L10.8523 15.3523C10.7736 15.4309 10.72 15.5312 10.6983 15.6403C10.6766 15.7494 10.6877 15.8625 10.7303 15.9653C10.7729 16.0681 10.845 16.1559 10.9375 16.2177C11.03 16.2795 11.1388 16.3125 11.25 16.3125Z" fill="white"/>
  <path d="M32.625 16.875H31.5V16.3125C31.5 16.1633 31.4407 16.0202 31.3352 15.9148C31.2298 15.8093 31.0867 15.75 30.9375 15.75H21.9375V14.5572C23.2196 14.2436 24.1875 12.8798 24.1875 11.25C24.1875 9.38904 22.9258 7.875 21.375 7.875H3.9375C2.38669 7.875 1.125 9.38904 1.125 11.25C1.125 12.8798 2.09285 14.2436 3.375 14.5572V24.75H1.6875C1.53832 24.75 1.39524 24.8093 1.28975 24.9148C1.18426 25.0202 1.125 25.1633 1.125 25.3125C1.12584 26.0582 1.42242 26.773 1.94969 27.3003C2.47695 27.8276 3.19184 28.1242 3.9375 28.125H32.0625C32.8082 28.1242 33.523 27.8276 34.0503 27.3003C34.5776 26.773 34.8742 26.0582 34.875 25.3125C34.875 25.1633 34.8157 25.0202 34.7102 24.9148C34.6048 24.8093 34.4617 24.75 34.3125 24.75H29.6146C30.3435 24.1614 30.8956 23.3827 31.2098 22.5H32.625C33.2215 22.4993 33.7934 22.2621 34.2152 21.8403C34.6371 21.4184 34.8743 20.8465 34.875 20.25V19.125C34.8743 18.5285 34.6371 17.9566 34.2152 17.5347C33.7934 17.1129 33.2215 16.8757 32.625 16.875ZM7.875 9H21.375C22.3054 9 23.0625 10.0093 23.0625 11.25C23.0625 12.4907 22.3054 13.5 21.375 13.5C21.2258 13.5 21.0827 13.5593 20.9773 13.6648C20.8718 13.7702 20.8125 13.9133 20.8125 14.0625V15.75H19.6875C19.5383 15.75 19.3952 15.8093 19.2898 15.9148C19.1843 16.0202 19.125 16.1633 19.125 16.3125V20.8125C19.1235 21.5251 19.2731 22.2299 19.564 22.8804C19.8548 23.5309 20.2804 24.1124 20.8125 24.5863V24.75H8.4375V14.0625C8.4375 13.9133 8.37824 13.7702 8.27275 13.6648C8.16726 13.5593 8.02418 13.5 7.875 13.5C6.94455 13.5 6.1875 12.4907 6.1875 11.25C6.1875 10.0093 6.94455 9 7.875 9ZM2.25 11.25C2.25 10.0093 3.00705 9 3.9375 9H5.78095C5.30626 9.65349 5.05437 10.4423 5.0625 11.25C5.0625 12.8798 6.03035 14.2436 7.3125 14.5572V24.75H4.5V14.0625C4.5 13.9133 4.44074 13.7702 4.33525 13.6648C4.22976 13.5593 4.08668 13.5 3.9375 13.5C3.00705 13.5 2.25 12.4907 2.25 11.25ZM33.6536 25.875C33.5369 26.2038 33.3213 26.4884 33.0365 26.6898C32.7516 26.8912 32.4114 26.9996 32.0625 27H3.9375C3.58862 26.9996 3.24841 26.8912 2.96354 26.6898C2.67867 26.4884 2.4631 26.2038 2.3464 25.875H33.6536ZM30.375 20.8125C30.3738 21.8564 29.9586 22.8573 29.2204 23.5954C28.4823 24.3336 27.4814 24.7488 26.4375 24.75H24.1875C23.6704 24.7502 23.1583 24.6484 22.6805 24.4506C22.2027 24.2528 21.7685 23.9628 21.4029 23.5971C21.0372 23.2315 20.7472 22.7973 20.5494 22.3195C20.3516 21.8417 20.2498 21.3296 20.25 20.8125V16.875H30.375V20.8125ZM33.75 20.25C33.7496 20.5483 33.631 20.8342 33.4201 21.0451C33.2092 21.256 32.9233 21.3746 32.625 21.375H31.468C31.4891 21.1882 31.4997 21.0004 31.5 20.8125V18H32.625C32.9233 18.0004 33.2092 18.119 33.4201 18.3299C33.631 18.5408 33.7496 18.8267 33.75 19.125V20.25Z" fill="white"/>
  <path d="M25.7062 14.0625C25.7062 14.2117 25.7655 14.3548 25.871 14.4602C25.9765 14.5657 26.1195 14.625 26.2687 14.625C26.4179 14.625 26.561 14.5657 26.6665 14.4602C26.772 14.3548 26.8312 14.2117 26.8312 14.0625C26.8272 13.9638 26.8586 13.867 26.9197 13.7894C27.0823 13.535 27.1687 13.2394 27.1687 12.9375C27.1687 12.6355 27.0823 12.3399 26.9197 12.0855C26.8586 12.008 26.8272 11.9111 26.8312 11.8125C26.8312 11.6871 26.8517 11.6529 26.9197 11.5395C27.0864 11.2869 27.1732 10.9901 27.1687 10.6875C27.1687 10.5383 27.1095 10.3952 27.004 10.2898C26.8985 10.1843 26.7554 10.125 26.6062 10.125C26.457 10.125 26.314 10.1843 26.2085 10.2898C26.103 10.3952 26.0437 10.5383 26.0437 10.6875C26.0477 10.7861 26.0163 10.8829 25.9552 10.9605C25.7926 11.2149 25.7062 11.5105 25.7062 11.8124C25.7062 12.1143 25.7926 12.4099 25.9552 12.6643C26.0232 12.7778 26.0437 12.812 26.0437 12.9374C26.0477 13.0361 26.0163 13.133 25.9552 13.2105C25.7885 13.4631 25.7018 13.76 25.7062 14.0625Z" fill="white"/>
  <path d="M29.0812 14.0625C29.0812 14.2117 29.1405 14.3548 29.246 14.4602C29.3515 14.5657 29.4945 14.625 29.6437 14.625C29.7929 14.625 29.936 14.5657 30.0415 14.4602C30.147 14.3548 30.2062 14.2117 30.2062 14.0625C30.2022 13.9638 30.2336 13.867 30.2947 13.7894C30.4573 13.535 30.5437 13.2394 30.5437 12.9375C30.5437 12.6355 30.4573 12.3399 30.2947 12.0855C30.2336 12.008 30.2022 11.9111 30.2062 11.8125C30.2062 11.6871 30.2267 11.6529 30.2947 11.5395C30.4614 11.2869 30.5482 10.9901 30.5437 10.6875C30.5437 10.5383 30.4845 10.3952 30.379 10.2898C30.2735 10.1843 30.1304 10.125 29.9812 10.125C29.832 10.125 29.689 10.1843 29.5835 10.2898C29.478 10.3952 29.4187 10.5383 29.4187 10.6875C29.4227 10.7861 29.3913 10.8829 29.3302 10.9605C29.1676 11.2149 29.0812 11.5105 29.0812 11.8124C29.0812 12.1143 29.1676 12.4099 29.3302 12.6643C29.3982 12.7778 29.4187 12.812 29.4187 12.9374C29.4227 13.0361 29.3913 13.133 29.3302 13.2105C29.1635 13.4631 29.0768 13.76 29.0812 14.0625Z" fill="white"/>
</svg>