<svg xmlns="http://www.w3.org/2000/svg" width="41" height="40" viewBox="0 0 41 40" fill="none">
  <path d="M25.5 26.6667L25.2549 27.8924C25.8076 28.0029 26.3659 27.7299 26.618 27.2257L25.5 26.6667ZM13.8333 15L13.2743 13.882C12.7701 14.1341 12.4971 14.6924 12.6076 15.2451L13.8333 15ZM14.4234 14.705L14.9824 15.823L14.9824 15.823L14.4234 14.705ZM16.0276 10.4856L17.1882 10.0214V10.0214L16.0276 10.4856ZM14.6715 7.09537L13.5109 7.5596L14.6715 7.09537ZM33.4046 25.8285L32.9404 26.9891L33.4046 25.8285ZM30.0144 24.4724L30.4786 23.3118L30.0144 24.4724ZM25.795 26.0766L26.913 26.6357V26.6357L25.795 26.0766ZM27.5833 18.3333C27.5833 19.0237 28.143 19.5833 28.8333 19.5833C29.5237 19.5833 30.0833 19.0237 30.0833 18.3333H27.5833ZM28.3259 15.7821L29.4807 15.3038L28.3259 15.7821ZM24.7179 12.1741L25.1962 11.0193L24.7179 12.1741ZM22.1667 10.4167C21.4763 10.4167 20.9167 10.9763 20.9167 11.6667C20.9167 12.357 21.4763 12.9167 22.1667 12.9167V10.4167ZM34.25 18.3333C34.25 19.0237 34.8096 19.5833 35.5 19.5833C36.1904 19.5833 36.75 19.0237 36.75 18.3333H34.25ZM34.4851 13.2309L35.6399 12.7525L34.4851 13.2309ZM27.2691 6.01494L27.7475 4.86009V4.86009L27.2691 6.01494ZM22.1667 3.75C21.4763 3.75 20.9167 4.30964 20.9167 5C20.9167 5.69036 21.4763 6.25 22.1667 6.25V3.75ZM34.25 28.9234V31.6667H36.75V28.9234H34.25ZM8.83333 6.25H11.5766V3.75H8.83333V6.25ZM25.5 26.6667C25.7451 25.4409 25.7455 25.441 25.7458 25.4411C25.7459 25.4411 25.7462 25.4412 25.7464 25.4412C25.7468 25.4413 25.7471 25.4413 25.7473 25.4414C25.7478 25.4415 25.7481 25.4415 25.7481 25.4415C25.748 25.4415 25.747 25.4413 25.7451 25.4409C25.7411 25.4401 25.7334 25.4384 25.7219 25.4359C25.6989 25.4308 25.6612 25.4222 25.6099 25.4098C25.5073 25.3848 25.3506 25.3443 25.1496 25.2852C24.7469 25.1667 24.1694 24.9745 23.4924 24.6844C22.1326 24.1016 20.4065 23.1388 18.8839 21.6161L17.1161 23.3839C18.9268 25.1946 20.9507 26.315 22.5076 26.9823C23.2889 27.3171 23.9614 27.5416 24.4442 27.6836C24.6858 27.7547 24.8808 27.8053 25.019 27.8389C25.0882 27.8558 25.1432 27.8683 25.1829 27.8771C25.2028 27.8815 25.2188 27.8849 25.2308 27.8874C25.2368 27.8887 25.2419 27.8897 25.2459 27.8906C25.2479 27.891 25.2496 27.8913 25.2511 27.8916C25.2519 27.8918 25.2526 27.8919 25.2532 27.8921C25.2535 27.8921 25.2539 27.8922 25.2541 27.8922C25.2545 27.8923 25.2549 27.8924 25.5 26.6667ZM18.8839 21.6161C17.3612 20.0935 16.3984 18.3674 15.8156 17.0076C15.5255 16.3306 15.3333 15.7531 15.2148 15.3504C15.1557 15.1494 15.1152 14.9927 15.0902 14.8901C15.0778 14.8388 15.0692 14.8011 15.0641 14.7781C15.0616 14.7666 15.0599 14.7589 15.0591 14.7549C15.0587 14.753 15.0585 14.752 15.0585 14.7519C15.0585 14.7519 15.0585 14.7522 15.0586 14.7527C15.0587 14.7529 15.0587 14.7532 15.0588 14.7536C15.0588 14.7538 15.0589 14.7541 15.0589 14.7542C15.059 14.7545 15.0591 14.7549 13.8333 15C12.6076 15.2451 12.6077 15.2455 12.6078 15.2459C12.6078 15.2461 12.6079 15.2465 12.6079 15.2468C12.6081 15.2474 12.6082 15.2481 12.6084 15.2489C12.6087 15.2504 12.609 15.2521 12.6094 15.2541C12.6102 15.2581 12.6113 15.2632 12.6126 15.2692C12.6151 15.2812 12.6185 15.2972 12.6229 15.3171C12.6317 15.3568 12.6442 15.4118 12.6611 15.481C12.6947 15.6192 12.7453 15.8142 12.8164 16.0558C12.9584 16.5386 13.1829 17.2111 13.5177 17.9924C14.185 19.5493 15.3054 21.5732 17.1161 23.3839L18.8839 21.6161ZM14.3923 16.118L14.9824 15.823L13.8643 13.587L13.2743 13.882L14.3923 16.118ZM17.1882 10.0214L15.8321 6.63113L13.5109 7.5596L14.867 10.9498L17.1882 10.0214ZM33.8689 24.6679L30.4786 23.3118L29.5502 25.633L32.9404 26.9891L33.8689 24.6679ZM24.677 25.5176L24.382 26.1076L26.618 27.2257L26.913 26.6357L24.677 25.5176ZM30.4786 23.3118C28.2654 22.4265 25.743 23.3855 24.677 25.5176L26.913 26.6357C27.3976 25.6665 28.5441 25.2306 29.5502 25.633L30.4786 23.3118ZM14.9824 15.823C17.1145 14.757 18.0735 12.2346 17.1882 10.0214L14.867 10.9498C15.2694 11.9559 14.8335 13.1024 13.8643 13.587L14.9824 15.823ZM11.5766 6.25C12.4284 6.25 13.1945 6.76865 13.5109 7.5596L15.8321 6.63113C15.136 4.89103 13.4507 3.75 11.5766 3.75V6.25ZM36.75 28.9234C36.75 27.0493 35.609 25.364 33.8689 24.6679L32.9404 26.9891C33.7314 27.3055 34.25 28.0716 34.25 28.9234H36.75ZM32.1667 33.75C18.1294 33.75 6.75 22.3706 6.75 8.33333H4.25C4.25 23.7513 16.7487 36.25 32.1667 36.25V33.75ZM32.1667 36.25C34.698 36.25 36.75 34.198 36.75 31.6667H34.25C34.25 32.8173 33.3173 33.75 32.1667 33.75V36.25ZM6.75 8.33333C6.75 7.18274 7.68274 6.25 8.83333 6.25V3.75C6.30203 3.75 4.25 5.80203 4.25 8.33333H6.75ZM30.0833 18.3333C30.0833 17.2937 29.8786 16.2643 29.4807 15.3038L27.171 16.2605C27.4432 16.9176 27.5833 17.622 27.5833 18.3333H30.0833ZM29.4807 15.3038C29.0829 14.3433 28.4997 13.4705 27.7646 12.7354L25.9968 14.5032C26.4998 15.0062 26.8988 15.6033 27.171 16.2605L29.4807 15.3038ZM27.7646 12.7354C27.0295 12.0003 26.1567 11.4171 25.1962 11.0193L24.2395 13.329C24.8967 13.6012 25.4938 14.0002 25.9968 14.5032L27.7646 12.7354ZM25.1962 11.0193C24.2358 10.6214 23.2063 10.4167 22.1667 10.4167V12.9167C22.878 12.9167 23.5824 13.0568 24.2395 13.329L25.1962 11.0193ZM36.75 18.3333C36.75 16.4182 36.3728 14.5219 35.6399 12.7525L33.3302 13.7092C33.9375 15.1753 34.25 16.7465 34.25 18.3333H36.75ZM35.6399 12.7525C34.907 10.9832 33.8328 9.37555 32.4786 8.02136L30.7109 9.78913C31.8329 10.9112 32.723 12.2432 33.3302 13.7092L35.6399 12.7525ZM32.4786 8.02136C31.1245 6.66717 29.5168 5.59297 27.7475 4.86009L26.7908 7.16979C28.2568 7.77703 29.5888 8.66708 30.7109 9.78913L32.4786 8.02136ZM27.7475 4.86009C25.9781 4.12721 24.0818 3.75 22.1667 3.75V6.25C23.7535 6.25 25.3247 6.56254 26.7908 7.16979L27.7475 4.86009Z" fill="#070E05"/>
</svg>