<svg xmlns="http://www.w3.org/2000/svg" width="36" height="36" viewBox="0 0 36 36" fill="none">
  <g clip-path="url(#clip0_430_12743)">
    <path d="M35.4716 9.58121C34.5198 9.58121 33.7456 8.807 33.7456 7.85518C33.7456 7.56331 33.509 7.32678 33.2172 7.32678C32.9253 7.32678 32.6888 7.56331 32.6888 7.85518C32.6888 8.80693 31.9145 9.58121 30.9627 9.58121C30.6709 9.58121 30.4343 9.81774 30.4343 10.1096C30.4343 10.4015 30.6709 10.638 30.9627 10.638C31.9145 10.638 32.6888 11.4123 32.6888 12.364C32.6888 12.6559 32.9253 12.8924 33.2172 12.8924C33.509 12.8924 33.7456 12.6559 33.7456 12.364C33.7456 11.4123 34.5198 10.638 35.4716 10.638C35.7635 10.638 36 10.4015 36 10.1096C36 9.81774 35.7635 9.58121 35.4716 9.58121ZM33.2172 10.7343C33.0434 10.4946 32.8322 10.2834 32.5926 10.1096C32.8323 9.9358 33.0435 9.72458 33.2172 9.48495C33.391 9.72465 33.6023 9.9358 33.8419 10.1096C33.6022 10.2834 33.391 10.4946 33.2172 10.7343Z" fill="white"/>
    <path d="M5.03726 9.58121C4.08558 9.58121 3.31123 8.807 3.31123 7.85518C3.31123 7.56331 3.07462 7.32678 2.78283 7.32678C2.49103 7.32678 2.25443 7.56331 2.25443 7.85518C2.25443 8.80693 1.48008 9.58121 0.528398 9.58121C0.236602 9.58121 0 9.81774 0 10.1096C0 10.4015 0.236602 10.638 0.528398 10.638C1.48008 10.638 2.25443 11.4123 2.25443 12.364C2.25443 12.6559 2.49103 12.8924 2.78283 12.8924C3.07462 12.8924 3.31123 12.6559 3.31123 12.364C3.31123 11.4123 4.08558 10.638 5.03726 10.638C5.32905 10.638 5.56566 10.4015 5.56566 10.1096C5.56566 9.81774 5.32905 9.58121 5.03726 9.58121ZM2.78283 10.7343C2.60902 10.4946 2.39787 10.2834 2.15817 10.1096C2.39794 9.9358 2.60909 9.72458 2.78283 9.48495C2.95664 9.72465 3.16779 9.9358 3.40748 10.1096C3.16786 10.2834 2.95664 10.4946 2.78283 10.7343Z" fill="white"/>
    <path d="M20.818 2.81798C19.5555 2.81798 18.5283 1.79093 18.5283 0.528328C18.5284 0.236531 18.2919 0 18 0C17.7082 0 17.4716 0.236531 17.4716 0.528399C17.4716 1.79093 16.4444 2.81805 15.182 2.81805C14.8902 2.81805 14.6536 3.05459 14.6536 3.34645C14.6536 3.63832 14.8902 3.87485 15.182 3.87485C16.4444 3.87485 17.4716 4.90198 17.4716 6.16451C17.4716 6.45638 17.7082 6.69291 18 6.69291C18.2919 6.69291 18.5284 6.45638 18.5284 6.16451C18.5284 4.90198 19.5555 3.87485 20.8181 3.87485C21.1099 3.87485 21.3465 3.63832 21.3465 3.34645C21.3465 3.05459 21.1099 2.81798 20.818 2.81798ZM18 4.36127C17.7388 3.95459 17.3918 3.60759 16.9851 3.34638C17.3918 3.08517 17.7388 2.73818 18 2.33149C18.2612 2.73818 18.6082 3.08517 19.0149 3.34638C18.6082 3.60759 18.2612 3.95459 18 4.36127Z" fill="white"/>
    <path d="M29.0008 17.8241L26.9454 12.0006C26.7917 11.5648 26.3778 11.272 25.9157 11.272H9.94338C9.48122 11.272 9.06743 11.5648 8.91366 12.0005L6.85828 17.8241C6.73889 18.1624 6.99834 18.5284 7.35652 18.5284H28.5026C28.674 18.5284 28.8348 18.4451 28.9338 18.3052C29.0329 18.1652 29.0579 17.9858 29.0008 17.8241ZM8.1033 17.4716L9.91012 12.3522C9.91491 12.3386 9.9289 12.3287 9.94331 12.3287H25.9157C25.9301 12.3287 25.9441 12.3386 25.949 12.3523L27.7558 17.4716H8.1033Z" fill="white"/>
    <path d="M28.0744 24.7985C26.1979 24.7985 24.728 25.7733 24.728 27.0177C24.728 28.2621 26.1979 29.2369 28.0744 29.2369C29.9509 29.2369 31.4208 28.2621 31.4208 27.0177C31.4208 25.7733 29.9509 24.7985 28.0744 24.7985ZM28.0744 28.1801C26.7639 28.1801 25.7848 27.5664 25.7848 27.0177C25.7848 26.4689 26.7639 25.8553 28.0744 25.8553C29.3849 25.8553 30.3641 26.4689 30.3641 27.0177C30.3641 27.5664 29.3849 28.1801 28.0744 28.1801Z" fill="white"/>
    <path d="M7.78462 24.7985C5.90812 24.7985 4.43823 25.7733 4.43823 27.0177C4.43823 28.2621 5.90812 29.2369 7.78462 29.2369C9.66112 29.2369 11.131 28.2621 11.131 27.0177C11.131 25.7733 9.66112 24.7985 7.78462 24.7985ZM7.78462 28.1801C6.4742 28.1801 5.49496 27.5664 5.49496 27.0177C5.49496 26.4689 6.47413 25.8553 7.78462 25.8553C9.0951 25.8553 10.0743 26.4689 10.0743 27.0177C10.0743 27.5664 9.0951 28.1801 7.78462 28.1801Z" fill="white"/>
    <path d="M34.8377 16.908H32.0197C31.7772 16.908 31.5659 17.073 31.5071 17.3082L31.1359 18.7929L28.5399 11.4378C28.148 10.3273 27.0934 9.58118 25.9158 9.58118H9.94345C8.76578 9.58118 7.71123 10.3273 7.31931 11.4378L4.72338 18.793L4.3522 17.3082C4.29334 17.073 4.08198 16.908 3.83962 16.908H1.02156C0.729766 16.908 0.493164 17.1446 0.493164 17.4364V19.6908C0.493164 19.9827 0.729766 20.2192 1.02156 20.2192H3.94002L2.13869 22.7411C1.79964 23.2158 1.62041 23.7752 1.62041 24.3585V30.9629C1.62041 31.878 2.06458 32.6912 2.74851 33.1987C2.7483 33.2048 2.74759 33.211 2.74759 33.2172V34.908C2.74759 35.5102 3.23746 36 3.83955 36H7.22116C7.82331 36 8.31311 35.5101 8.31311 34.908V33.7456H27.546V34.908C27.546 35.5102 28.0358 36 28.6379 36H32.0195C32.6217 36 33.1115 35.5101 33.1115 34.908V33.2172C33.1115 33.211 33.1108 33.2048 33.1106 33.1987C33.7945 32.6912 34.2387 31.878 34.2387 30.9629V24.3585C34.2387 23.7751 34.0594 23.2157 33.7203 22.7411L31.919 20.2192H34.8375C35.1294 20.2192 35.3659 19.9827 35.3659 19.6908V17.4364C35.366 17.1445 35.1295 16.908 34.8377 16.908ZM1.54996 19.1624V17.9647H3.42702L3.72641 19.1624H1.54996ZM7.25645 34.908C7.25645 34.9274 7.2407 34.9432 7.22123 34.9432H3.83962C3.82021 34.9432 3.80439 34.9274 3.80439 34.908V33.7456H4.40324H7.25645V34.908ZM32.0548 34.908C32.0548 34.9274 32.039 34.9432 32.0196 34.9432H28.638C28.6186 34.9432 28.6028 34.9274 28.6028 34.908V33.7456H31.456H32.0548V34.908ZM31.456 32.6888H4.40317C3.63571 32.6888 2.98391 32.1852 2.76018 31.4912H33.099C32.8752 32.1852 32.2235 32.6888 31.456 32.6888ZM22.4736 26.9824V28.18H13.3856V26.9824H22.4736ZM13.4686 25.9256C13.6924 25.2315 14.3441 24.728 15.1116 24.728H20.7477C21.5151 24.728 22.1669 25.2315 22.3907 25.9256H13.4686ZM22.4736 29.2368V30.4344H13.3856V29.2368H22.4736ZM32.8606 23.3553C33.0709 23.6497 33.1821 23.9966 33.1821 24.3585V30.4345H23.5304V26.454C23.5304 24.9196 22.282 23.6712 20.7477 23.6712H15.1116C13.5772 23.6712 12.3289 24.9196 12.3289 26.454V30.4345H2.67714V24.3585C2.67714 23.9966 2.7883 23.6497 2.99861 23.3553L5.2387 20.2192H24.6928C24.9846 20.2192 25.2212 19.9826 25.2212 19.6908C25.2212 19.3989 24.9846 19.1624 24.6928 19.1624H5.71359L8.31578 11.7895C8.55892 11.1008 9.21297 10.6379 9.94345 10.6379H25.9158C26.6462 10.6379 27.3003 11.1007 27.5435 11.7895L30.1456 19.1624H26.9472C26.6553 19.1624 26.4188 19.3989 26.4188 19.6908C26.4188 19.9826 26.6553 20.2192 26.9472 20.2192H30.6205L32.8606 23.3553ZM34.3093 19.1624H32.1327L32.4321 17.9647H34.3093V19.1624Z" fill="white"/>
    <path d="M9.47544 23.1077H6.09383C5.80203 23.1077 5.56543 23.3442 5.56543 23.6361C5.56543 23.9279 5.80203 24.1645 6.09383 24.1645H9.47544C9.76723 24.1645 10.0038 23.9279 10.0038 23.6361C10.0038 23.3442 9.76723 23.1077 9.47544 23.1077Z" fill="white"/>
    <path d="M29.7652 23.1077H26.3836C26.0918 23.1077 25.8552 23.3442 25.8552 23.6361C25.8552 23.9279 26.0918 24.1645 26.3836 24.1645H29.7652C30.0571 24.1645 30.2936 23.9279 30.2936 23.6361C30.2936 23.3442 30.0571 23.1077 29.7652 23.1077Z" fill="white"/>
  </g>
  <defs>
    <clipPath id="clip0_430_12743">
      <rect width="36" height="36" fill="white"/>
    </clipPath>
  </defs>
</svg>