<svg xmlns="http://www.w3.org/2000/svg" width="30" height="30" viewBox="0 0 30 30" fill="none">
  <path d="M12.9222 10.0306H16.2463L16.4591 8.40346H12.2288L12.6501 9.25168L12.9222 10.0306ZM12.9222 10.0306C12.8607 9.763 12.7738 9.49998 12.6501 9.25179L12.9222 10.0306ZM19.3226 8.40353L17.6068 8.40435L17.3939 10.0316H18.6293C18.6906 9.7641 18.7767 9.50102 18.9004 9.25269L19.3226 8.40353ZM19.3226 8.40353L18.9005 9.25261L19.3226 8.40353ZM16.9286 4.82625L16.9286 4.82641L16.6091 7.26596H15.2913C15.0143 5.44847 13.4587 4.04658 11.5631 4.04658C9.4735 4.04658 7.77402 5.74603 7.77402 7.83471C7.77402 9.92339 9.4735 11.6228 11.5631 11.6228C11.6699 11.6228 11.7756 11.6167 11.8798 11.6071C11.846 12.0817 11.6573 12.567 11.3189 13.0202C10.3611 14.3026 10.0167 15.8853 10.3458 17.4747L10.3458 17.4747C10.7842 19.5891 12.4917 21.3007 14.5962 21.7364C14.8011 21.7788 15.0052 21.806 15.2075 21.8248V24.7336L11.7743 26.1964C11.5249 26.3023 11.3864 26.5687 11.4397 26.8332L11.4398 26.8336C11.4944 27.0985 11.7274 27.2885 11.9971 27.2885H19.5543C19.8241 27.2885 20.0571 27.0985 20.1117 26.8336L20.1117 26.8332C20.1651 26.5687 20.0266 26.3023 19.7772 26.1964L16.344 24.7336V21.8073C17.4113 21.6983 18.4324 21.3031 19.279 20.6135C20.5811 19.553 21.3278 17.9833 21.3278 16.306C21.3278 15.1208 20.9504 13.9872 20.2384 13.0279L20.2384 13.0279C19.8586 12.5166 19.6618 11.9708 19.6618 11.4497V10.8469C19.6618 10.4717 19.7509 10.096 19.9167 9.75888C19.9168 9.75877 19.9168 9.75865 19.9169 9.75854L20.7473 8.08829L20.7473 8.08826C20.8348 7.91223 20.8258 7.70298 20.7222 7.53551C20.6187 7.36835 20.4356 7.26596 20.2387 7.26596H17.7539L18.0099 5.30863L21.8609 3.81148C21.8609 3.81146 21.861 3.81144 21.861 3.81142C22.1561 3.69785 22.3022 3.36798 22.1871 3.07501C22.0726 2.78356 21.7404 2.63704 21.4519 2.75131C21.4517 2.75136 21.4516 2.7514 21.4515 2.75145L17.2871 4.37017C17.2871 4.37017 17.2871 4.37017 17.2871 4.37017C17.0923 4.44535 16.9559 4.62069 16.9286 4.82625ZM11.6329 9.75892L11.633 9.75912C11.7398 9.97269 11.8025 10.208 11.8397 10.4515C11.8301 10.4532 11.8206 10.4548 11.8113 10.4565C11.7243 10.4717 11.6465 10.4853 11.5621 10.4853C10.1005 10.4853 8.91059 9.29631 8.91059 7.83471C8.91059 6.37308 10.0995 5.18408 11.5621 5.18408C12.8275 5.18408 13.8828 6.07765 14.1444 7.26596H11.3109C11.1146 7.26596 10.9314 7.36689 10.8277 7.53509C10.7228 7.70268 10.7138 7.91223 10.8024 8.08847C10.8024 8.08855 10.8025 8.08864 10.8025 8.08872L11.6329 9.75892ZM18.5631 19.7309L18.563 19.7309C17.5285 20.574 16.1671 20.9017 14.8282 20.6218L14.828 20.6218C13.162 20.2774 11.8076 18.9197 11.4594 17.2428C11.197 15.9756 11.4704 14.7186 12.2301 13.6995C12.7494 13.0039 13.0262 12.2259 13.0262 11.4506V11.1681H18.5271V11.4497C18.5271 12.2241 18.8059 13.004 19.3277 13.7058C19.8927 14.4679 20.1921 15.3668 20.1921 16.305C20.1921 17.639 19.5991 18.8874 18.5631 19.7309ZM15.7762 25.7269L16.7688 26.15H14.7836L15.7762 25.7269Z" fill="#070E05" stroke="#070E05" stroke-width="0.2"/>
</svg>