<svg xmlns="http://www.w3.org/2000/svg" width="30" height="30" viewBox="0 0 30 30" fill="none">
  <path fill-rule="evenodd" clip-rule="evenodd" d="M25.4256 7.98129C25.4256 9.96772 24.2248 11.6769 22.5163 12.4103L21.3082 20.9314C21.0849 22.5019 19.8262 23.6705 18.3289 23.8368C18.2719 24.2191 18.2739 24.6891 18.4819 25.0535C18.727 25.4821 19.2611 25.7608 20.0693 25.8818C23.4759 26.3913 25.3749 25.9099 25.3926 25.905C25.8908 25.7685 26.404 26.0642 26.5406 26.566C26.6765 27.0681 26.383 27.5856 25.8848 27.7225C25.8239 27.7388 24.8428 28 23.0502 28C22.1594 28 21.0706 27.9362 19.7952 27.7457C18.3852 27.534 17.3956 26.9397 16.853 25.9777C16.3716 25.1237 16.3752 24.197 16.4839 23.5172C16.0035 23.2831 15.5825 22.9349 15.2537 22.4922C14.7127 21.7633 14.4862 20.8668 14.614 19.9669L15.2412 15.5485H14.5755C14.0595 15.5485 13.6411 15.1269 13.6411 14.6065C13.6411 14.0861 14.0595 13.6644 14.5755 13.6644H15.5087L15.6728 12.5084L7.38287 12.0329H3.98511C3.46834 12.0329 3.04993 11.6112 3.04993 11.0908V3.72518C3.04993 3.20478 3.46834 2.7831 3.98511 2.7831H7.20332C7.25379 2.77152 7.30586 2.76404 7.35921 2.76102L20.5985 2.00175C20.6159 2.00053 20.6336 2.00012 20.6517 2.00012C23.2836 2.00012 25.4256 4.15851 25.4256 6.81171V7.98129ZM17.2419 14.759C17.2438 14.7472 17.2455 14.7353 17.247 14.7233L17.546 12.6158L20.5737 12.7894L19.4572 20.6645C19.3392 21.491 18.5795 22.0691 17.7638 21.9605C17.7517 21.9585 17.7396 21.9568 17.7275 21.9553C17.3353 21.8936 16.9883 21.6842 16.7504 21.3632C16.5081 21.0378 16.4066 20.6372 16.465 20.2342L17.2419 14.759ZM23.5565 7.98129C23.5565 9.29789 22.6894 10.4143 21.501 10.781C21.4472 10.7909 21.3949 10.8055 21.3444 10.8245C21.1301 10.8775 20.9066 10.9064 20.6767 10.9083L16.8079 10.6864C16.7957 10.6854 16.7836 10.6847 16.7715 10.6843L8.3468 10.201V4.59198L20.6767 3.8847C22.267 3.89811 23.5565 5.20581 23.5565 6.81171V7.98129ZM4.91909 10.1492H6.47666V4.66686H4.91909V10.1492Z" fill="#070E05"/>
</svg>