<svg xmlns="http://www.w3.org/2000/svg" width="30" height="30" viewBox="0 0 30 30" fill="none">
  <g clip-path="url(#clip0_444_8120)">
    <path d="M20.7973 28.568V28.9125H18.818V28.568H20.7973ZM21.2051 -0.15H8.79492C7.37614 -0.15 6.21914 1.007 6.21914 2.42578V25.9922C6.21914 27.1223 6.95054 28.0835 7.95937 28.4281V29.0273C7.95937 29.6434 8.46013 30.1441 9.07617 30.1441H11.2969C11.9129 30.1441 12.4137 29.6434 12.4137 29.0273V28.568H17.5805V29.0273C17.5805 29.6434 18.0812 30.1441 18.6973 30.1441H20.918C21.534 30.1441 22.0348 29.6434 22.0348 29.0273V28.4278C23.0485 28.0785 23.775 27.1228 23.775 25.9922L23.775 2.42644L23.625 2.42578H23.775V2.426C23.781 1.00678 22.6236 -0.15 21.2051 -0.15ZM8.79492 1.0875H21.1992C21.9367 1.0875 22.5375 1.68831 22.5375 2.42578V10.6723H7.45664V2.42578C7.45664 1.68831 8.05745 1.0875 8.79492 1.0875ZM11.182 28.568V28.9125H9.20273V28.568H11.182ZM21.2051 27.3305H8.79492C8.05745 27.3305 7.45664 26.7297 7.45664 25.9922V11.9098H22.5434V25.9922C22.5434 26.7297 21.9425 27.3305 21.2051 27.3305Z" fill="#070E05" stroke="#070E05" stroke-width="0.3"/>
    <path d="M9.11133 9.05859H10.0664C10.4414 9.05859 10.752 8.75391 10.752 8.37305V3.38672C10.752 3.01172 10.4473 2.70117 10.0664 2.70117H9.11133C8.73633 2.70117 8.42578 3.00586 8.42578 3.38672V8.37891C8.43164 8.75391 8.73633 9.05859 9.11133 9.05859ZM9.36914 3.63867H9.81445V8.12109H9.36914V3.63867Z" fill="#070E05"/>
    <path d="M10.0664 13.5234H9.11133C8.73633 13.5234 8.42578 13.8281 8.42578 14.209V20.6016C8.42578 20.9766 8.73047 21.2871 9.11133 21.2871H10.0664C10.4414 21.2871 10.752 20.9824 10.752 20.6016V14.2031C10.752 13.8281 10.4414 13.5234 10.0664 13.5234ZM9.81445 20.3438H9.36914V14.4609H9.81445V20.3438Z" fill="#070E05"/>
  </g>
  <defs>
    <clipPath id="clip0_444_8120">
      <rect width="30" height="30" fill="white"/>
    </clipPath>
  </defs>
</svg>