<svg xmlns="http://www.w3.org/2000/svg" width="36" height="36" viewBox="0 0 36 36" fill="none">
  <g clip-path="url(#clip0_430_12809)">
    <path d="M1.125 35.4375H25.875C26.0242 35.4375 26.1673 35.3782 26.2728 35.2727C26.3782 35.1673 26.4375 35.0242 26.4375 34.875V28.6875C26.4387 27.2588 25.9898 25.8659 25.1544 24.7068C24.319 23.5478 23.1397 22.6813 21.7839 22.2306L16.3125 20.4075V18.9264C16.5024 18.8162 16.6855 18.6946 16.8609 18.5625H23.0625C23.1806 18.5625 23.2956 18.5254 23.3914 18.4563C23.4872 18.3873 23.5588 18.2899 23.5961 18.1779C23.6335 18.0659 23.6346 17.945 23.5994 17.8323C23.5642 17.7196 23.4945 17.6208 23.4 17.55C22.7727 17.0771 22.2634 16.4654 21.9121 15.7627C21.5607 15.0601 21.3769 14.2856 21.375 13.5V8.4375C21.375 6.34892 20.5453 4.34588 19.0685 2.86903C17.5916 1.39219 15.5886 0.5625 13.5 0.5625C11.4114 0.5625 9.40839 1.39219 7.93154 2.86903C6.45469 4.34588 5.625 6.34892 5.625 8.4375V13.5C5.62309 14.2856 5.43927 15.0601 5.08794 15.7627C4.73662 16.4654 4.22733 17.0771 3.6 17.55C3.50556 17.6208 3.43579 17.7196 3.40059 17.8323C3.36539 17.945 3.36653 18.0659 3.40387 18.1779C3.4412 18.2899 3.51283 18.3873 3.6086 18.4563C3.70438 18.5254 3.81944 18.5625 3.9375 18.5625H10.1391C10.3145 18.6946 10.4976 18.8162 10.6875 18.9264V20.4075L5.21607 22.2306C3.86028 22.6813 2.68098 23.5478 1.84561 24.7068C1.01025 25.8659 0.561292 27.2588 0.562502 28.6875V34.875C0.562502 35.0242 0.621766 35.1673 0.727255 35.2727C0.832744 35.3782 0.975818 35.4375 1.125 35.4375ZM6.1875 27.5625V23.0929L7.875 22.5304V27.5625H6.1875ZM6.1875 28.6875H20.8125V34.3125H19.125V30.9375C19.125 30.7883 19.0657 30.6452 18.9603 30.5398C18.8548 30.4343 18.7117 30.375 18.5625 30.375H8.4375C8.28832 30.375 8.14525 30.4343 8.03976 30.5398C7.93427 30.6452 7.875 30.7883 7.875 30.9375V34.3125H6.1875V28.6875ZM20.8125 27.5625H19.125V22.5304L20.8125 23.0929V27.5625ZM18 34.3125H9V31.5H18C18 32.2498 18 33.5655 18 34.3125ZM25.3125 28.6875V34.3125H21.9375V23.4984C22.9423 23.9434 23.7962 24.6707 24.3954 25.5919C24.9946 26.5131 25.3132 27.5886 25.3125 28.6875ZM21.6669 17.4375H17.9893C18.494 16.7733 18.8436 16.0045 19.0125 15.1875H19.125C19.5782 15.1881 20.0208 15.0508 20.394 14.7937C20.6023 15.7636 21.0386 16.6699 21.6669 17.4375ZM19.125 11.8125C19.4234 11.8125 19.7095 11.931 19.9205 12.142C20.1315 12.353 20.25 12.6391 20.25 12.9375C20.25 13.2359 20.1315 13.522 19.9205 13.733C19.7095 13.944 19.4234 14.0625 19.125 14.0625V11.8125ZM13.5 1.6875C15.2896 1.68944 17.0054 2.40122 18.2708 3.66667C19.5363 4.93212 20.2481 6.64788 20.25 8.4375V11.0002C19.9095 10.7978 19.5211 10.6898 19.125 10.6875V10.125C19.125 9.97582 19.0657 9.83274 18.9603 9.72725C18.8548 9.62176 18.7117 9.5625 18.5625 9.5625H15.1875C14.5908 9.5625 14.0185 9.32545 13.5965 8.90349C13.1746 8.48153 12.9375 7.90924 12.9375 7.3125C12.9375 7.20916 12.9091 7.10781 12.8552 7.01958C12.8014 6.93135 12.7244 6.85964 12.6325 6.81234C12.5406 6.76503 12.4375 6.74395 12.3344 6.75141C12.2313 6.75887 12.1323 6.79458 12.0482 6.85462L8.11069 9.66713C8.03779 9.71917 7.97837 9.78787 7.93737 9.86751C7.89638 9.94715 7.87499 10.0354 7.875 10.125V10.6875C7.47886 10.6898 7.09051 10.7978 6.75 11.0002V8.4375C6.75194 6.64788 7.46372 4.93212 8.72917 3.66667C9.99462 2.40122 11.7104 1.68944 13.5 1.6875ZM7.875 14.0625C7.57663 14.0625 7.29049 13.944 7.07951 13.733C6.86853 13.522 6.75 13.2359 6.75 12.9375C6.75 12.6391 6.86853 12.353 7.07951 12.142C7.29049 11.931 7.57663 11.8125 7.875 11.8125V14.0625ZM6.606 14.7937C6.97922 15.0508 7.42184 15.1881 7.875 15.1875H7.9875C8.15603 16.0044 8.50526 16.7732 9.00957 17.4375H5.33307C5.96137 16.6699 6.39773 15.7636 6.606 14.7937ZM9 14.0625V10.4147L11.9599 8.30025C12.1723 8.99073 12.6003 9.59503 13.1811 10.0246C13.762 10.4542 14.4651 10.6865 15.1875 10.6875H18V14.0625C18 15.256 17.5259 16.4006 16.682 17.2445C15.8381 18.0884 14.6935 18.5625 13.5 18.5625C12.3065 18.5625 11.1619 18.0884 10.318 17.2445C9.47411 16.4006 9 15.256 9 14.0625ZM13.5 19.6875C14.0725 19.6878 14.6416 19.6004 15.1875 19.4282V20.6438L13.5 23.175L11.8125 20.6438V19.4282C12.3584 19.6004 12.9276 19.6878 13.5 19.6875ZM11.0205 21.4824L13.032 24.4997C13.0834 24.5767 13.153 24.6399 13.2346 24.6836C13.3162 24.7273 13.4074 24.7501 13.5 24.7501C13.5926 24.7501 13.6838 24.7273 13.7654 24.6836C13.847 24.6399 13.9166 24.5767 13.968 24.4997L15.9795 21.4824L18 22.1558V27.5625H9V22.1558L11.0205 21.4824ZM1.6875 28.6875C1.68681 27.5886 2.00542 26.5131 2.60459 25.5919C3.20376 24.6707 4.05767 23.9434 5.0625 23.4984V34.3125H1.6875V28.6875Z" fill="white"/>
    <path d="M25.3124 20.25C25.3124 20.3992 25.3717 20.5423 25.4772 20.6477C25.5826 20.7532 25.7257 20.8125 25.8749 20.8125H27.5624V34.875C27.5624 35.0242 27.6217 35.1673 27.7272 35.2727C27.8326 35.3782 27.9757 35.4375 28.1249 35.4375H30.3749C30.5241 35.4375 30.6672 35.3782 30.7727 35.2727C30.8781 35.1673 30.9374 35.0242 30.9374 34.875V20.8125H32.6249C32.7741 20.8125 32.9172 20.7532 33.0227 20.6477C33.1281 20.5423 33.1874 20.3992 33.1874 20.25V18.0613L35.4239 7.9965C35.4421 7.91432 35.4416 7.8291 35.4225 7.74714C35.4033 7.66517 35.366 7.58855 35.3134 7.52291C35.2607 7.45726 35.1939 7.40429 35.118 7.36787C35.0422 7.33145 34.9591 7.31253 34.8749 7.3125H32.6249C32.5068 7.31247 32.3917 7.34962 32.2959 7.41868C32.2001 7.48773 32.1284 7.5852 32.0911 7.69725L31.4999 9.47137L30.9087 7.69725C30.8714 7.5852 30.7997 7.48773 30.7039 7.41868C30.6081 7.34962 30.493 7.31247 30.3749 7.3125H23.6249C23.5407 7.31251 23.4575 7.33144 23.3816 7.36789C23.3057 7.40434 23.2389 7.45737 23.1862 7.52308C23.1335 7.58879 23.0962 7.66549 23.0771 7.74753C23.058 7.82957 23.0576 7.91484 23.0759 7.99706L25.3124 18.0613V20.25ZM29.8124 34.3125H28.6874V20.8125H29.8124V34.3125ZM32.0624 19.6875H26.4374V18.5625H32.0624V19.6875ZM25.4356 8.4375L26.4543 12.5122L27.5455 12.2389L26.5955 8.4375H27.6856L28.7043 12.5117L29.7955 12.2383L28.8455 8.4375H29.9705L30.9672 11.4278C31.0042 11.5403 31.0758 11.6383 31.1717 11.7077C31.2677 11.7772 31.3831 11.8146 31.5016 11.8146C31.6201 11.8146 31.7355 11.7772 31.8314 11.7077C31.9274 11.6383 31.999 11.5403 32.036 11.4278L33.0305 8.4375H34.1735L32.1749 17.4375H26.3249L24.3263 8.4375H25.4356Z" fill="white"/>
  </g>
  <defs>
    <clipPath id="clip0_430_12809">
      <rect width="36" height="36" fill="white"/>
    </clipPath>
  </defs>
</svg>