<svg xmlns="http://www.w3.org/2000/svg" width="30" height="30" viewBox="0 0 30 30" fill="none">
  <path d="M27.1375 8.16249L25.3625 6.39999L27.1375 4.63749C27.3729 4.40211 27.5051 4.08286 27.5051 3.74999C27.5051 3.41711 27.3729 3.09787 27.1375 2.86249C26.9021 2.62711 26.5829 2.49487 26.25 2.49487C25.9171 2.49487 25.5979 2.62711 25.3625 2.86249L12.1875 16.0375C10.895 15.1848 9.33209 14.8422 7.80146 15.0761C6.27083 15.31 4.88152 16.1038 3.90273 17.3036C2.92394 18.5033 2.42536 20.0238 2.50359 21.5702C2.58183 23.1166 3.23131 24.5789 4.32619 25.6738C5.42108 26.7687 6.8834 27.4182 8.42982 27.4964C9.97624 27.5746 11.4966 27.076 12.6964 26.0973C13.8962 25.1185 14.69 23.7292 14.9239 22.1985C15.1578 20.6679 14.8152 19.1049 13.9625 17.8125L20.0625 11.7L21.825 13.475C21.9418 13.5908 22.0803 13.6825 22.2326 13.7447C22.3849 13.8069 22.548 13.8384 22.7125 13.8375C22.877 13.8384 23.0401 13.8069 23.1924 13.7447C23.3447 13.6825 23.4832 13.5908 23.6 13.475C23.7172 13.3588 23.8102 13.2205 23.8736 13.0682C23.9371 12.9159 23.9697 12.7525 23.9697 12.5875C23.9697 12.4225 23.9371 12.2591 23.8736 12.1068C23.8102 11.9544 23.7172 11.8162 23.6 11.7L21.825 9.99999L23.6 8.22499L25.3625 9.99999C25.4793 10.1158 25.6178 10.2075 25.7701 10.2697C25.9224 10.3319 26.0855 10.3634 26.25 10.3625C26.4145 10.3634 26.5776 10.3319 26.7299 10.2697C26.8822 10.2075 27.0207 10.1158 27.1375 9.99999C27.2644 9.88294 27.3656 9.74087 27.4349 9.58275C27.5042 9.42462 27.5399 9.25387 27.5399 9.08124C27.5399 8.90861 27.5042 8.73785 27.4349 8.57973C27.3656 8.42161 27.2644 8.27954 27.1375 8.16249ZM8.75 25C8.00832 25 7.28329 24.7801 6.66661 24.368C6.04993 23.9559 5.56928 23.3703 5.28545 22.6851C5.00162 21.9998 4.92736 21.2458 5.07205 20.5184C5.21675 19.791 5.5739 19.1228 6.09835 18.5983C6.6228 18.0739 7.29098 17.7167 8.01841 17.572C8.74584 17.4273 9.49984 17.5016 10.1851 17.7854C10.8703 18.0693 11.456 18.5499 11.868 19.1666C12.2801 19.7833 12.5 20.5083 12.5 21.25C12.5 22.2446 12.1049 23.1984 11.4016 23.9016C10.6984 24.6049 9.74456 25 8.75 25Z" fill="#070E05"/>
</svg>