<svg xmlns="http://www.w3.org/2000/svg" width="36" height="36" viewBox="0 0 36 36" fill="none">
  <path d="M28.8589 2.25H7.1436C6.57504 2.25067 6.02996 2.47683 5.62793 2.87886C5.22589 3.28089 4.99974 3.82597 4.99907 4.39453C4.99907 4.39453 5.01421 31.5842 4.99902 31.6055C4.99972 32.174 5.22589 32.7191 5.62793 33.1211C6.02997 33.5232 6.57505 33.7493 7.14361 33.75H28.8589C29.4275 33.7494 29.9726 33.5232 30.3746 33.1212C30.7767 32.7191 31.0028 32.174 31.0035 31.6055V4.39453C31.0028 3.82596 30.7767 3.28085 30.3746 2.87881C29.9726 2.47677 29.4275 2.25063 28.8589 2.25ZM29.8784 4.39453V8.4375H18.5612V3.375H28.8589C29.1292 3.37533 29.3883 3.48286 29.5795 3.67398C29.7706 3.86511 29.8781 4.12424 29.8784 4.39453ZM7.14361 3.375H17.4362V8.4375H6.12408V4.39453C6.12437 4.12422 6.23187 3.86507 6.42301 3.67393C6.61415 3.48279 6.8733 3.37529 7.14361 3.375ZM28.8589 32.625H7.14361C6.8733 32.6247 6.61415 32.5172 6.42301 32.3261C6.23187 32.1349 6.12437 31.8758 6.12408 31.6055V9.5625H29.8785V31.6055C29.8781 31.8758 29.7706 32.1349 29.5795 32.326C29.3883 32.5171 29.1292 32.6247 28.8589 32.625Z" fill="white"/>
  <path d="M18.0014 11.1278C15.3591 11.1307 12.8259 12.1817 10.9575 14.05C9.08916 15.9183 8.03817 18.4515 8.03516 21.0938C8.58255 34.3149 27.4219 34.3113 27.9674 21.0937C27.9644 18.4515 26.9134 15.9184 25.0451 14.0501C23.1767 12.1817 20.6436 11.1308 18.0014 11.1278ZM18.0014 29.9348C15.6574 29.9322 13.4101 28.9999 11.7527 27.3424C10.0952 25.685 9.16283 23.4378 9.16016 21.0938C9.64575 9.36517 26.3585 9.3683 26.8424 21.0939C26.8397 23.4378 25.9074 25.685 24.25 27.3424C22.5925 28.9998 20.3454 29.9321 18.0014 29.9348Z" fill="white"/>
  <path d="M18.0015 13.9744C16.114 13.9765 14.3043 14.7272 12.9697 16.0619C11.635 17.3966 10.8842 19.2062 10.8821 21.0938C11.2731 30.5387 24.7313 30.5359 25.1209 21.0937C25.1188 19.2062 24.368 17.3966 23.0333 16.0619C21.6986 14.7272 19.889 13.9765 18.0015 13.9744ZM18.0015 27.0882C16.4122 27.0864 14.8886 26.4542 13.7648 25.3305C12.641 24.2067 12.0089 22.683 12.0071 21.0938C12.3365 13.1414 23.6679 13.1437 23.9959 21.0938C23.9941 22.6831 23.362 24.2067 22.2382 25.3305C21.1144 26.4543 19.5908 27.0864 18.0015 27.0882Z" fill="white"/>
  <path d="M8.76309 7.58035H14.7998C15.1666 7.57996 15.5182 7.43411 15.7775 7.17481C16.0369 6.9155 16.1828 6.56391 16.1833 6.19716V5.59292C16.1828 5.22615 16.0369 4.87453 15.7776 4.61518C15.5182 4.35583 15.1666 4.20993 14.7998 4.20947H8.76309C8.39632 4.20993 8.04469 4.35583 7.78534 4.61518C7.52599 4.87453 7.38009 5.22615 7.37964 5.59292V6.19717C7.3801 6.56392 7.52602 6.91551 7.78537 7.17481C8.04473 7.43411 8.39634 7.57996 8.76309 7.58035ZM8.50464 5.59292C8.5047 5.5244 8.53196 5.4587 8.58041 5.41024C8.62886 5.36179 8.69457 5.33454 8.76309 5.33447H14.7998C15.1918 5.34191 15.0249 5.92576 15.0583 6.19718C15.0581 6.26566 15.0309 6.3313 14.9824 6.3797C14.934 6.4281 14.8683 6.45531 14.7998 6.45537H8.76309C8.37105 6.44789 8.53806 5.86434 8.50464 5.59292Z" fill="white"/>
  <path d="M21.7178 7.84037C22.224 7.83481 22.7077 7.62979 23.0638 7.2698C23.4198 6.90981 23.6195 6.42392 23.6195 5.91759C23.6195 5.41126 23.4198 4.92537 23.0637 4.56539C22.7077 4.20542 22.224 4.00041 21.7177 3.99487C21.2114 4.00043 20.7277 4.20545 20.3717 4.56544C20.0156 4.92543 19.8159 5.41132 19.8159 5.91765C19.8159 6.42398 20.0156 6.90987 20.3717 7.26984C20.7278 7.62982 21.2115 7.83483 21.7178 7.84037ZM21.7178 5.11987C21.9274 5.12282 22.1274 5.20817 22.2746 5.35746C22.4218 5.50675 22.5044 5.70798 22.5043 5.91764C22.5043 6.12729 22.4218 6.32852 22.2746 6.4778C22.1274 6.62708 21.9273 6.71242 21.7177 6.71536C21.5081 6.71241 21.308 6.62706 21.1608 6.47777C21.0136 6.32848 20.9311 6.12725 20.9311 5.9176C20.9311 5.70794 21.0137 5.50672 21.1609 5.35743C21.3081 5.20815 21.5081 5.12281 21.7178 5.11987Z" fill="white"/>
  <path d="M26.7243 7.81766C27.2305 7.81197 27.7141 7.60689 28.07 7.24692C28.426 6.88694 28.6256 6.40112 28.6256 5.89488C28.6256 5.38864 28.4259 4.90283 28.07 4.54287C27.714 4.1829 27.2305 3.97784 26.7243 3.97217C26.2181 3.97785 25.7345 4.18294 25.3786 4.54291C25.0226 4.90288 24.823 5.3887 24.823 5.89494C24.823 6.40118 25.0227 6.887 25.3786 7.24696C25.7346 7.60692 26.2181 7.81199 26.7243 7.81766ZM26.7243 5.09717C26.9339 5.10027 27.1338 5.18569 27.2808 5.33496C27.4279 5.48423 27.5104 5.68538 27.5103 5.89493C27.5103 6.10449 27.4279 6.30563 27.2808 6.4549C27.1337 6.60416 26.9338 6.68957 26.7243 6.69266C26.5146 6.68982 26.3144 6.60451 26.1671 6.45521C26.0199 6.3059 25.9373 6.10461 25.9373 5.89488C25.9373 5.68515 26.0199 5.48386 26.1672 5.33456C26.3145 5.18527 26.5146 5.1 26.7243 5.09717Z" fill="white"/>
</svg>