<svg xmlns="http://www.w3.org/2000/svg" width="681" height="789" viewBox="0 0 681 789" fill="none">
  <path d="M512.103 282.203C512.103 230.81 484.837 169.092 431.062 98.7645C391.765 47.3722 353.044 10.9524 351.415 9.4271L341.346 0L331.277 9.4271C329.647 10.9524 290.926 47.3722 251.631 98.7645C197.855 169.092 170.589 230.81 170.589 282.203C170.589 371.395 239.33 444.822 326.613 452.318V502.87H356.079V452.318C443.363 444.822 512.103 371.395 512.103 282.203ZM326.613 319.746L217.505 210.638C227.184 188.528 239.908 166.842 253.104 147.19L326.613 220.699V319.746ZM356.079 220.701L429.589 147.191C442.785 166.842 455.509 188.528 465.188 210.639L356.079 319.747V220.701ZM407.917 117.005C409.367 118.903 410.828 120.84 412.298 122.81L356.078 179.029V56.0882C370.4 71.3308 389.232 92.5364 407.917 117.005ZM326.613 56.0882V179.029L270.394 122.811C271.864 120.841 273.326 118.903 274.776 117.006C293.461 92.5364 312.292 71.3308 326.613 56.0882ZM200.055 282.203C200.055 268.916 202.374 255.103 206.362 241.166L326.613 361.418V422.728C255.603 415.337 200.055 355.137 200.055 282.203ZM356.079 422.728V361.419L476.331 241.167C480.32 255.104 482.639 268.917 482.639 282.204C482.638 355.137 427.09 415.337 356.079 422.728Z" fill="#F4F5F4"/>
  <path d="M639.787 683.586C633.99 683.586 628.087 682.848 622.079 681.373C616.071 680.003 611.064 678.158 607.059 675.839L607.85 654.336H609.431L614.332 664.613C615.808 667.565 617.389 670.2 619.075 672.519C620.762 674.732 623.081 676.471 626.032 677.736C628.14 678.79 630.143 679.528 632.04 679.95C634.043 680.266 636.256 680.424 638.681 680.424C645.11 680.424 650.17 678.685 653.859 675.207C657.653 671.728 659.551 667.248 659.551 661.767C659.551 656.603 658.286 652.597 655.756 649.751C653.226 646.8 649.168 643.954 643.582 641.213L637.099 638.368C628.035 634.362 620.92 629.777 615.755 624.612C610.695 619.342 608.166 612.385 608.166 603.742C608.166 597.523 609.747 592.147 612.909 587.615C616.177 583.083 620.656 579.604 626.348 577.18C632.145 574.756 638.891 573.544 646.586 573.544C652.172 573.544 657.443 574.281 662.397 575.757C667.456 577.233 671.83 579.235 675.52 581.765L674.571 600.738H672.99L666.507 588.88C664.716 585.191 662.924 582.608 661.132 581.133C659.34 579.552 657.285 578.445 654.966 577.812C653.595 577.391 652.331 577.127 651.171 577.022C650.012 576.811 648.536 576.706 646.744 576.706C641.368 576.706 636.836 578.287 633.147 581.449C629.458 584.506 627.613 588.669 627.613 593.939C627.613 599.315 629.036 603.637 631.882 606.904C634.728 610.066 638.891 612.912 644.372 615.442L651.645 618.604C661.764 623.031 669.037 627.774 673.464 632.834C677.891 637.788 680.105 644.218 680.105 652.123C680.105 661.399 676.574 668.988 669.511 674.89C662.555 680.688 652.647 683.586 639.787 683.586Z" fill="#F4F5F4"/>
  <path d="M498.194 680.74V679.159L503.411 677.578C505.309 677.051 506.679 676.05 507.522 674.574C508.365 672.993 508.787 671.149 508.787 669.04V592.991C507.628 590.461 506.679 588.564 505.941 587.299C505.309 586.034 504.571 584.98 503.728 584.137C502.884 583.188 501.725 582.029 500.249 580.658L497.561 577.97V576.389H525.546L578.038 648.012V588.406C578.038 586.298 577.669 584.4 576.931 582.714C576.299 581.027 574.929 579.921 572.821 579.393L567.603 577.97V576.389H590.212V577.97L585.943 579.393C584.046 580.026 582.887 581.133 582.465 582.714C582.043 584.295 581.833 586.139 581.833 588.248V681.215H572.979L512.582 598.208V669.04C512.582 671.149 512.898 672.94 513.53 674.416C514.163 675.892 515.48 676.946 517.483 677.578L522.226 679.159V680.74H498.194Z" fill="#F4F5F4"/>
  <path d="M434.889 683.586C428.459 683.586 422.24 682.427 416.232 680.108C410.33 677.789 405.007 674.363 400.263 669.831C395.626 665.193 391.936 659.449 389.196 652.597C386.455 645.746 385.085 637.735 385.085 628.565C385.085 619.5 386.455 611.542 389.196 604.691C391.936 597.839 395.678 592.147 400.421 587.615C405.165 582.977 410.488 579.499 416.39 577.18C422.398 574.756 428.565 573.544 434.889 573.544C441.319 573.544 447.485 574.703 453.387 577.022C459.396 579.235 464.719 582.661 469.356 587.299C474.1 591.831 477.841 597.576 480.582 604.533C483.322 611.384 484.693 619.395 484.693 628.565C484.693 637.524 483.322 645.482 480.582 652.439C477.841 659.29 474.1 665.035 469.356 669.673C464.719 674.205 459.396 677.684 453.387 680.108C447.485 682.427 441.319 683.586 434.889 683.586ZM434.889 680.266C440.686 680.266 445.377 678.738 448.96 675.681C452.544 672.519 455.127 667.196 456.708 659.712C458.394 652.123 459.237 641.741 459.237 628.565C459.237 615.284 458.394 604.902 456.708 597.418C455.127 589.829 452.544 584.506 448.96 581.449C445.377 578.287 440.686 576.706 434.889 576.706C429.197 576.706 424.559 578.287 420.975 581.449C417.392 584.506 414.757 589.829 413.07 597.418C411.489 604.902 410.698 615.284 410.698 628.565C410.698 641.741 411.489 652.123 413.07 659.712C414.757 667.196 417.392 672.519 420.975 675.681C424.559 678.738 429.197 680.266 434.889 680.266Z" fill="#F4F5F4"/>
  <path d="M329.039 683.586C323.241 683.586 317.339 682.848 311.331 681.373C305.323 680.003 300.316 678.158 296.31 675.839L297.101 654.336H298.682L303.583 664.613C305.059 667.565 306.64 670.2 308.327 672.519C310.013 674.732 312.332 676.471 315.283 677.736C317.391 678.79 319.394 679.528 321.291 679.95C323.294 680.266 325.508 680.424 327.932 680.424C334.362 680.424 339.421 678.685 343.11 675.207C346.905 671.728 348.802 667.248 348.802 661.767C348.802 656.603 347.537 652.597 345.008 649.751C342.478 646.8 338.42 643.954 332.833 641.213L326.351 638.368C317.286 634.362 310.171 629.777 305.006 624.612C299.947 619.342 297.417 612.385 297.417 603.742C297.417 597.523 298.998 592.147 302.16 587.615C305.428 583.083 309.908 579.604 315.6 577.18C321.397 574.756 328.143 573.544 335.837 573.544C341.424 573.544 346.694 574.281 351.648 575.757C356.707 577.233 361.082 579.235 364.771 581.765L363.822 600.738H362.241L355.759 588.88C353.967 585.191 352.175 582.608 350.383 581.133C348.591 579.552 346.536 578.445 344.217 577.812C342.847 577.391 341.582 577.127 340.422 577.022C339.263 576.811 337.787 576.706 335.995 576.706C330.62 576.706 326.087 578.287 322.398 581.449C318.709 584.506 316.864 588.669 316.864 593.939C316.864 599.315 318.287 603.637 321.133 606.904C323.979 610.066 328.143 612.912 333.624 615.442L340.897 618.604C351.016 623.031 358.289 627.774 362.716 632.834C367.143 637.788 369.356 644.218 369.356 652.123C369.356 661.399 365.825 668.988 358.763 674.89C351.806 680.688 341.898 683.586 329.039 683.586Z" fill="#F4F5F4"/>
  <path d="M182.095 680.74V679.159L186.048 677.736C188.156 676.893 189.79 675.892 190.949 674.732C192.108 673.467 193.057 671.728 193.795 669.515L226.365 576.073H239.804L271.9 670.147C272.743 672.466 273.692 674.258 274.746 675.523C275.8 676.682 277.434 677.684 279.647 678.527L281.544 679.159V680.74H241.385V679.159L243.757 678.369C245.97 677.526 247.288 676.366 247.71 674.89C248.237 673.309 248.184 671.465 247.551 669.357L240.12 646.589H205.021L197.431 668.882C196.694 671.201 196.43 673.046 196.641 674.416C196.957 675.786 198.222 676.893 200.435 677.736L203.914 679.159V680.74H182.095ZM206.127 643.427H239.172L223.203 594.256L206.127 643.427Z" fill="#F4F5F4"/>
  <path d="M88.7033 680.74V679.159L92.3398 677.736C94.1316 676.998 95.3438 676.05 95.9762 674.89C96.7141 673.626 97.083 671.939 97.083 669.831V587.299C97.083 585.191 96.7668 583.557 96.1343 582.398C95.6073 581.133 94.3425 580.131 92.3398 579.393L88.7033 577.97V576.389H164.437L165.385 600.738H163.804L157.006 585.876C156.057 583.979 155.056 582.45 154.002 581.291C152.948 580.131 151.367 579.552 149.258 579.552H120.799V625.245H137.717C139.825 625.245 141.406 624.718 142.46 623.664C143.619 622.504 144.621 620.976 145.464 619.078L148.626 612.754H150.207V641.213H148.626L145.464 634.573C144.515 632.676 143.514 631.2 142.46 630.146C141.406 628.987 139.825 628.407 137.717 628.407H120.799V677.578H152.737C154.845 677.578 156.479 677.051 157.638 675.997C158.798 674.838 159.746 673.257 160.484 671.254L166.966 656.392H168.548L167.599 680.74H88.7033Z" fill="#F4F5F4"/>
  <path d="M32.9582 683.586C27.161 683.586 21.2583 682.848 15.2502 681.373C9.24211 680.003 4.23537 678.158 0.22998 675.839L1.02052 654.336H2.60159L7.50292 664.613C8.97859 667.565 10.5597 670.2 12.2461 672.519C13.9326 674.732 16.2515 676.471 19.2029 677.736C21.311 678.79 23.3137 679.528 25.211 679.95C27.2137 680.266 29.4272 680.424 31.8515 680.424C38.2812 680.424 43.3406 678.685 47.0298 675.207C50.8244 671.728 52.7217 667.248 52.7217 661.767C52.7217 656.603 51.4568 652.597 48.9271 649.751C46.3974 646.8 42.3393 643.954 36.7528 641.213L30.2704 638.368C21.2056 634.362 14.0907 629.777 8.92589 624.612C3.86645 619.342 1.33673 612.385 1.33673 603.742C1.33673 597.523 2.91781 592.147 6.07996 587.615C9.34751 583.083 13.8272 579.604 19.5191 577.18C25.3164 574.756 32.0623 573.544 39.7568 573.544C45.3433 573.544 50.6136 574.281 55.5676 575.757C60.627 577.233 65.0013 579.235 68.6905 581.765L67.7419 600.738H66.1608L59.6784 588.88C57.8865 585.191 56.0946 582.608 54.3027 581.133C52.5108 579.552 50.4554 578.445 48.1365 577.812C46.7663 577.391 45.5014 577.127 44.342 577.022C43.1825 576.811 41.7068 576.706 39.915 576.706C34.5393 576.706 30.0069 578.287 26.3177 581.449C22.6285 584.506 20.7839 588.669 20.7839 593.939C20.7839 599.315 22.2069 603.637 25.0528 606.904C27.8988 610.066 32.0623 612.912 37.5433 615.442L44.8163 618.604C54.9352 623.031 62.2081 627.774 66.6351 632.834C71.0621 637.788 73.2756 644.218 73.2756 652.123C73.2756 661.399 69.7446 668.988 62.6824 674.89C55.7257 680.688 45.8176 683.586 32.9582 683.586Z" fill="#F4F5F4"/>
  <path d="M651.865 788.341V742.227H679.797V747.233H657.003V783.335H679.665V788.341H651.865ZM654.236 767.129V762.122H676.108V767.129H654.236Z" fill="#F4F5F4"/>
  <path d="M570.593 789C567.211 789 564.071 788.407 561.172 787.221C558.273 786.036 555.726 784.389 553.53 782.28C551.334 780.172 549.621 777.691 548.392 774.836C547.206 771.938 546.613 768.797 546.613 765.416C546.613 762.034 547.206 758.916 548.392 756.061C549.621 753.162 551.29 750.659 553.398 748.551C555.55 746.443 558.054 744.818 560.908 743.676C563.807 742.49 566.903 741.897 570.197 741.897C572.525 741.897 574.809 742.227 577.049 742.885C579.332 743.544 581.397 744.466 583.241 745.652C585.086 746.838 586.579 748.178 587.721 749.671L584.295 753.162C583.065 751.889 581.682 750.791 580.145 749.869C578.608 748.946 576.983 748.221 575.27 747.694C573.601 747.167 571.932 746.904 570.263 746.904C567.672 746.904 565.256 747.365 563.017 748.287C560.821 749.21 558.888 750.505 557.219 752.174C555.55 753.799 554.255 755.754 553.332 758.037C552.41 760.277 551.949 762.737 551.949 765.416C551.949 768.007 552.41 770.444 553.332 772.728C554.299 774.968 555.638 776.944 557.351 778.657C559.108 780.326 561.128 781.622 563.412 782.544C565.696 783.466 568.155 783.927 570.79 783.927C572.854 783.927 574.787 783.62 576.587 783.005C578.432 782.39 580.035 781.534 581.397 780.436C582.758 779.294 583.812 777.976 584.559 776.483C585.305 774.99 585.679 773.387 585.679 771.674V769.368L586.733 770.686H570.527V765.613H590.817C590.861 765.965 590.905 766.382 590.949 766.865C590.993 767.304 591.015 767.765 591.015 768.248C591.059 768.688 591.081 769.105 591.081 769.5C591.081 772.355 590.554 774.99 589.5 777.406C588.446 779.777 586.974 781.841 585.086 783.598C583.241 785.311 581.089 786.65 578.63 787.617C576.17 788.539 573.491 789 570.593 789Z" fill="#F4F5F4"/>
  <path d="M450.607 788.341L468.262 742.227H474.126L491.649 788.341H486.05L474.784 758.433C474.477 757.598 474.126 756.632 473.73 755.534C473.379 754.392 472.984 753.228 472.545 752.042C472.149 750.813 471.754 749.627 471.359 748.485C471.007 747.343 470.678 746.333 470.371 745.455H471.688C471.337 746.553 470.963 747.673 470.568 748.814C470.217 749.912 469.844 751.032 469.448 752.174C469.053 753.272 468.658 754.37 468.262 755.468C467.867 756.566 467.472 757.664 467.077 758.762L455.877 788.341H450.607ZM458.117 775.627L460.028 770.62H481.833L483.941 775.627H458.117Z" fill="#F4F5F4"/>
  <path d="M380.11 788.341V747.233H366.934V742.227H398.951V747.233H385.248V788.341H380.11Z" fill="#F4F5F4"/>
  <path d="M288.912 788.341V783.466H296.356V747.102H288.912V742.227H308.939V747.102H301.495V783.466H308.939V788.341H288.912Z" fill="#F4F5F4"/>
  <path d="M196.212 788.341V742.227H214.263C216.942 742.227 219.357 742.863 221.509 744.137C223.705 745.367 225.44 747.058 226.714 749.21C227.987 751.362 228.624 753.799 228.624 756.522C228.624 759.069 228.009 761.375 226.779 763.439C225.55 765.504 223.881 767.15 221.773 768.38C219.665 769.566 217.293 770.159 214.658 770.159H201.35V788.341H196.212ZM224.342 788.341L212.747 768.051L217.688 766.338L230.469 788.341H224.342ZM201.35 765.152H215.119C216.744 765.152 218.171 764.779 219.401 764.032C220.631 763.286 221.597 762.276 222.3 761.002C223.002 759.684 223.354 758.191 223.354 756.522C223.354 754.721 222.937 753.118 222.102 751.713C221.268 750.308 220.104 749.21 218.611 748.419C217.161 747.629 215.492 747.233 213.604 747.233H201.35V765.152Z" fill="#F4F5F4"/>
  <path d="M105.39 788.341V742.227H133.323V747.233H110.529V783.335H133.191V788.341H105.39ZM107.762 767.129V762.122H129.634V767.129H107.762Z" fill="#F4F5F4"/>
  <path d="M35.2984 788.341V742.227H40.4369V788.341H35.2984ZM4.46745 788.341V742.227H9.60594V788.341H4.46745ZM6.97082 767.853V762.846H37.4724V767.853H6.97082Z" fill="#F4F5F4"/>
</svg>