<svg xmlns="http://www.w3.org/2000/svg" width="30" height="30" viewBox="0 0 30 30" fill="none">
  <g clip-path="url(#clip0_444_8076)">
    <path fill-rule="evenodd" clip-rule="evenodd" d="M25.9091 2.7273V16.4326C28.2159 16.767 30 18.7384 30.0001 21.1364C30.0001 23.7678 27.8588 25.9092 25.2274 25.9092C24.7133 25.9092 24.2073 25.8246 23.7159 25.6581L19.573 29.8003C19.4452 29.9282 19.272 30.0001 19.0909 30.0001H17.0455C16.6686 30.0001 16.3636 29.6951 16.3636 29.3182V27.2728C16.3636 27.0916 16.4356 26.9185 16.5634 26.7907L18.8086 24.5455H15C14.1818 24.5455 13.4549 24.1757 12.9546 23.6029C12.4542 24.1757 11.7274 24.5455 10.9091 24.5455H2.7273C1.22382 24.5455 0 23.3224 0 21.8182V2.7273C0 1.22312 1.22382 0 2.7273 0H10.9091C11.7273 0 12.4542 0.36978 12.9546 0.942572C13.4549 0.36978 14.1818 0 15 0H23.1819C24.6853 0 25.9091 1.22312 25.9091 2.7273ZM10.9091 23.1818C11.6615 23.1818 12.2727 22.5699 12.2727 21.8182V2.7273C12.2727 1.97559 11.6615 1.36368 10.9091 1.36368H2.7273C1.97495 1.36368 1.36368 1.97559 1.36368 2.7273V21.8182C1.36368 22.5699 1.97489 23.1818 2.7273 23.1818H10.9091ZM13.6364 21.8182C13.6364 22.5699 14.2476 23.1819 15 23.1819H20.1723L20.7063 22.6479C20.5385 22.1564 20.4546 21.6497 20.4546 21.1364C20.4546 18.7384 22.2386 16.767 24.5455 16.4326V2.7273C24.5455 1.97559 23.9343 1.36368 23.1819 1.36368H15C14.2477 1.36368 13.6364 1.97559 13.6364 2.7273V21.8182ZM23.8304 24.2385C24.2805 24.4422 24.7506 24.5455 25.2273 24.5455C27.1076 24.5455 28.6363 23.016 28.6363 21.1363C28.6363 19.2567 27.1076 17.7273 25.2272 17.7273C23.347 17.7273 21.8182 19.2567 21.8182 21.1363C21.8182 21.6118 21.922 22.0825 22.1258 22.534C22.2416 22.7923 22.1871 23.0959 21.986 23.2963L17.7273 27.555V28.6364H18.8086L23.0673 24.3777C23.2671 24.1779 23.5681 24.12 23.8304 24.2385ZM8.86455 5.45456H4.77364C4.39676 5.45456 4.0918 5.14966 4.0918 4.77278C4.0918 4.39591 4.39676 4.09094 4.77364 4.09094H8.86455C9.24136 4.09094 9.54639 4.39584 9.54639 4.77272C9.54639 5.14959 9.24142 5.45456 8.86455 5.45456ZM4.77364 6.81824H8.86455C9.24136 6.81824 9.54632 7.12314 9.54639 7.50001C9.54639 7.87689 9.24142 8.18185 8.86455 8.18185H4.77364C4.39676 8.18185 4.0918 7.87689 4.0918 7.50008C4.0918 7.1232 4.39676 6.81824 4.77364 6.81824ZM17.0451 5.45456H21.136C21.5129 5.45456 21.8179 5.14959 21.8179 4.77272C21.8179 4.39584 21.5129 4.09094 21.136 4.09094H17.0451C16.6682 4.09094 16.3633 4.39591 16.3633 4.77278C16.3633 5.14966 16.6682 5.45456 17.0451 5.45456ZM21.136 6.81812C21.5129 6.81812 21.8179 7.12308 21.8179 7.49996C21.8179 7.87683 21.513 8.1818 21.136 8.1818H17.0451C16.6682 8.1818 16.3633 7.87683 16.3633 7.49996C16.3633 7.12308 16.6682 6.81812 17.0451 6.81812H21.136ZM10.2268 10.9092C9.84989 10.9092 9.54492 11.2141 9.54492 11.591V14.3183C9.54492 14.6951 9.84989 15.0001 10.2268 15.0001C10.6036 15.0001 10.9086 14.6951 10.9086 14.3183V11.591C10.9086 11.2141 10.6036 10.9092 10.2268 10.9092ZM22.5002 15C22.1233 15 21.8184 14.6951 21.8184 14.3182V11.5909C21.8184 11.214 22.1233 10.9091 22.5002 10.9091C22.8771 10.9091 23.182 11.214 23.182 11.5909V14.3182C23.182 14.6951 22.8771 15 22.5002 15ZM25.9085 21.8182C26.6616 21.8182 27.2722 21.2077 27.2722 20.4546C27.2722 19.7015 26.6616 19.0909 25.9085 19.0909C25.1554 19.0909 24.5449 19.7015 24.5449 20.4546C24.5449 21.2077 25.1554 21.8182 25.9085 21.8182Z" fill="#070E05"/>
  </g>
  <defs>
    <clipPath id="clip0_444_8076">
      <rect width="30" height="30" fill="white"/>
    </clipPath>
  </defs>
</svg>