<svg xmlns="http://www.w3.org/2000/svg" width="56" height="56" viewBox="0 0 56 56" fill="none">
  <path d="M40.2506 20.0296C40.2506 16.3819 38.3153 12.0014 34.4986 7.0099C31.7095 3.36228 28.9612 0.77736 28.8456 0.669097L28.131 0L27.4163 0.669097C27.3006 0.77736 24.5524 3.36228 21.7633 7.0099C17.9466 12.0014 16.0113 16.3819 16.0113 20.0296C16.0113 26.3601 20.8902 31.5716 27.0853 32.1037V35.6917H29.1766V32.1037C35.3717 31.5716 40.2506 26.3601 40.2506 20.0296ZM27.0853 22.6943L19.3412 14.9502C20.0282 13.381 20.9313 11.8418 21.8679 10.4469L27.0853 15.6643V22.6943ZM29.1766 15.6644L34.3941 10.447C35.3307 11.8418 36.2338 13.381 36.9207 14.9503L29.1766 22.6944V15.6644ZM32.8559 8.30452C32.9588 8.43928 33.0625 8.57675 33.1668 8.71652L29.1766 12.7068V3.98091C30.1931 5.06277 31.5297 6.56786 32.8559 8.30452ZM27.0853 3.98091V12.7068L23.0951 8.71659C23.1994 8.57682 23.3032 8.43928 23.4061 8.30459C24.7323 6.56786 26.0688 5.06277 27.0853 3.98091ZM18.1027 20.0296C18.1027 19.0865 18.2672 18.1062 18.5503 17.117L27.0853 25.652V30.0035C22.0452 29.479 18.1027 25.2062 18.1027 20.0296ZM29.1766 30.0035V25.652L37.7116 17.117C37.9947 18.1063 38.1593 19.0866 38.1593 20.0297C38.1593 25.2062 34.2167 29.479 29.1766 30.0035Z" fill="white"/>
  <path d="M49.3131 48.5182C48.9016 48.5182 48.4827 48.4658 48.0563 48.3611C47.6298 48.2638 47.2745 48.1329 46.9902 47.9683L47.0463 46.4421H47.1585L47.5064 47.1715C47.6111 47.381 47.7233 47.568 47.843 47.7326C47.9627 47.8897 48.1273 48.0132 48.3368 48.103C48.4864 48.1778 48.6286 48.2301 48.7632 48.2601C48.9054 48.2825 49.0625 48.2937 49.2345 48.2937C49.6909 48.2937 50.05 48.1703 50.3118 47.9234C50.5812 47.6765 50.7158 47.3586 50.7158 46.9696C50.7158 46.603 50.626 46.3187 50.4465 46.1167C50.2669 45.9072 49.9789 45.7052 49.5824 45.5107L49.1223 45.3087C48.4789 45.0244 47.974 44.699 47.6074 44.3324C47.2483 43.9584 47.0687 43.4646 47.0687 42.8511C47.0687 42.4097 47.181 42.0282 47.4054 41.7065C47.6373 41.3848 47.9553 41.1379 48.3592 40.9659C48.7707 40.7938 49.2495 40.7078 49.7956 40.7078C50.1921 40.7078 50.5662 40.7601 50.9178 40.8649C51.2769 40.9696 51.5874 41.1118 51.8492 41.2913L51.7819 42.6379H51.6697L51.2096 41.7963C51.0824 41.5345 50.9552 41.3512 50.828 41.2464C50.7009 41.1342 50.555 41.0557 50.3904 41.0108C50.2931 40.9808 50.2034 40.9621 50.1211 40.9547C50.0388 40.9397 49.934 40.9322 49.8069 40.9322C49.4253 40.9322 49.1036 41.0444 48.8418 41.2689C48.5799 41.4858 48.449 41.7813 48.449 42.1554C48.449 42.5369 48.55 42.8437 48.752 43.0756C48.954 43.3 49.2495 43.502 49.6385 43.6816L50.1547 43.906C50.8729 44.2202 51.3891 44.5569 51.7033 44.916C52.0176 45.2676 52.1747 45.7239 52.1747 46.285C52.1747 46.9434 51.924 47.482 51.4228 47.901C50.929 48.3124 50.2258 48.5182 49.3131 48.5182Z" fill="white"/>
  <path d="M39.2634 48.3162V48.204L39.6337 48.0917C39.7683 48.0543 39.8656 47.9833 39.9255 47.8785C39.9853 47.7663 40.0152 47.6354 40.0152 47.4858V42.0881C39.9329 41.9085 39.8656 41.7738 39.8132 41.6841C39.7683 41.5943 39.716 41.5195 39.6561 41.4596C39.5963 41.3923 39.514 41.31 39.4092 41.2128L39.2185 41.022V40.9098H41.2047L44.9304 45.9933V41.7626C44.9304 41.613 44.9042 41.4783 44.8518 41.3586C44.8069 41.2389 44.7097 41.1604 44.5601 41.123L44.1897 41.022V40.9098H45.7945V41.022L45.4915 41.123C45.3568 41.1679 45.2745 41.2464 45.2446 41.3586C45.2147 41.4709 45.1997 41.6018 45.1997 41.7514V48.3498H44.5713L40.2846 42.4584V47.4858C40.2846 47.6354 40.307 47.7626 40.3519 47.8673C40.3968 47.972 40.4903 48.0469 40.6324 48.0917L40.9691 48.204V48.3162H39.2634Z" fill="white"/>
  <path d="M34.7702 48.5182C34.3139 48.5182 33.8725 48.4359 33.4461 48.2713C33.0271 48.1067 32.6493 47.8636 32.3127 47.5419C31.9835 47.2127 31.7216 46.805 31.5271 46.3187C31.3326 45.8324 31.2354 45.2638 31.2354 44.613C31.2354 43.9696 31.3326 43.4048 31.5271 42.9185C31.7216 42.4322 31.9872 42.0282 32.3239 41.7065C32.6605 41.3773 33.0383 41.1305 33.4573 40.9659C33.8837 40.7938 34.3214 40.7078 34.7702 40.7078C35.2266 40.7078 35.6642 40.7901 36.0832 40.9547C36.5096 41.1118 36.8874 41.3549 37.2166 41.6841C37.5533 42.0058 37.8188 42.4135 38.0133 42.9073C38.2079 43.3935 38.3051 43.9621 38.3051 44.613C38.3051 45.2489 38.2079 45.8137 38.0133 46.3075C37.8188 46.7937 37.5533 47.2015 37.2166 47.5306C36.8874 47.8523 36.5096 48.0992 36.0832 48.2713C35.6642 48.4359 35.2266 48.5182 34.7702 48.5182ZM34.7702 48.2825C35.1817 48.2825 35.5146 48.174 35.769 47.9571C36.0233 47.7326 36.2066 47.3548 36.3189 46.8237C36.4385 46.285 36.4984 45.5481 36.4984 44.613C36.4984 43.6703 36.4385 42.9334 36.3189 42.4023C36.2066 41.8636 36.0233 41.4858 35.769 41.2689C35.5146 41.0444 35.1817 40.9322 34.7702 40.9322C34.3663 40.9322 34.0371 41.0444 33.7827 41.2689C33.5284 41.4858 33.3413 41.8636 33.2216 42.4023C33.1094 42.9334 33.0533 43.6703 33.0533 44.613C33.0533 45.5481 33.1094 46.285 33.2216 46.8237C33.3413 47.3548 33.5284 47.7326 33.7827 47.9571C34.0371 48.174 34.3663 48.2825 34.7702 48.2825Z" fill="white"/>
  <path d="M27.2574 48.5182C26.846 48.5182 26.427 48.4658 26.0006 48.3611C25.5742 48.2638 25.2188 48.1329 24.9345 47.9683L24.9906 46.4421H25.1028L25.4507 47.1715C25.5554 47.381 25.6677 47.568 25.7874 47.7326C25.9071 47.8897 26.0717 48.0132 26.2811 48.103C26.4307 48.1778 26.5729 48.2301 26.7076 48.2601C26.8497 48.2825 27.0068 48.2937 27.1789 48.2937C27.6352 48.2937 27.9943 48.1703 28.2562 47.9234C28.5255 47.6765 28.6602 47.3586 28.6602 46.9696C28.6602 46.603 28.5704 46.3187 28.3908 46.1167C28.2113 45.9072 27.9233 45.7052 27.5267 45.5107L27.0667 45.3087C26.4233 45.0244 25.9183 44.699 25.5517 44.3324C25.1926 43.9584 25.0131 43.4646 25.0131 42.8511C25.0131 42.4097 25.1253 42.0282 25.3497 41.7065C25.5816 41.3848 25.8996 41.1379 26.3036 40.9659C26.715 40.7938 27.1938 40.7078 27.74 40.7078C28.1365 40.7078 28.5105 40.7601 28.8621 40.8649C29.2212 40.9696 29.5317 41.1118 29.7936 41.2913L29.7262 42.6379H29.614L29.1539 41.7963C29.0267 41.5345 28.8995 41.3512 28.7724 41.2464C28.6452 41.1342 28.4993 41.0557 28.3347 41.0108C28.2375 40.9808 28.1477 40.9621 28.0654 40.9547C27.9831 40.9397 27.8784 40.9322 27.7512 40.9322C27.3696 40.9322 27.0479 41.0444 26.7861 41.2689C26.5243 41.4858 26.3933 41.7813 26.3933 42.1554C26.3933 42.5369 26.4943 42.8437 26.6963 43.0756C26.8983 43.3 27.1938 43.502 27.5829 43.6816L28.0991 43.906C28.8173 44.2202 29.3335 44.5569 29.6477 44.916C29.9619 45.2676 30.119 45.7239 30.119 46.285C30.119 46.9434 29.8684 47.482 29.3671 47.901C28.8734 48.3124 28.1701 48.5182 27.2574 48.5182Z" fill="white"/>
  <path d="M16.828 48.3162V48.204L17.1085 48.103C17.2581 48.0431 17.3741 47.972 17.4564 47.8897C17.5387 47.8 17.606 47.6765 17.6584 47.5194L19.9701 40.8873H20.9239L23.202 47.5643C23.2618 47.7289 23.3291 47.8561 23.4039 47.9459C23.4788 48.0281 23.5947 48.0992 23.7518 48.1591L23.8865 48.204V48.3162H21.0361V48.204L21.2045 48.1478C21.3616 48.088 21.4551 48.0057 21.485 47.901C21.5224 47.7887 21.5187 47.6578 21.4738 47.5082L20.9464 45.8923H18.4551L17.9165 47.4745C17.8641 47.6391 17.8454 47.77 17.8604 47.8673C17.8828 47.9646 17.9726 48.0431 18.1297 48.103L18.3766 48.204V48.3162H16.828ZM18.5337 45.6678H20.879L19.7456 42.1778L18.5337 45.6678Z" fill="white"/>
  <path d="M10.1994 48.3162V48.204L10.4575 48.103C10.5847 48.0506 10.6707 47.9833 10.7156 47.901C10.768 47.8112 10.7942 47.6915 10.7942 47.5419V41.6841C10.7942 41.5345 10.7717 41.4185 10.7268 41.3362C10.6894 41.2464 10.5996 41.1754 10.4575 41.123L10.1994 41.022V40.9098H15.5746L15.642 42.6379H15.5298L15.0472 41.5831C14.9799 41.4484 14.9088 41.3399 14.834 41.2576C14.7592 41.1754 14.647 41.1342 14.4974 41.1342H12.4774V44.3773H13.6782C13.8278 44.3773 13.94 44.3399 14.0148 44.2651C14.0971 44.1828 14.1682 44.0743 14.228 43.9397L14.4525 43.4908H14.5647V45.5107H14.4525L14.228 45.0394C14.1607 44.9047 14.0896 44.8 14.0148 44.7252C13.94 44.6429 13.8278 44.6017 13.6782 44.6017H12.4774V48.0917H14.7442C14.8939 48.0917 15.0098 48.0543 15.0921 47.9795C15.1744 47.8972 15.2417 47.785 15.2941 47.6429L15.7542 46.588H15.8664L15.7991 48.3162H10.1994Z" fill="white"/>
  <path d="M6.24284 48.5182C5.83137 48.5182 5.41242 48.4658 4.986 48.3611C4.55957 48.2638 4.20421 48.1329 3.91992 47.9683L3.97603 46.4421H4.08825L4.43613 47.1715C4.54086 47.381 4.65308 47.568 4.77278 47.7326C4.89248 47.8897 5.05707 48.0132 5.26654 48.103C5.41616 48.1778 5.55831 48.2301 5.69297 48.2601C5.83511 48.2825 5.99222 48.2937 6.16429 48.2937C6.62064 48.2937 6.97974 48.1703 7.24158 47.9234C7.51091 47.6765 7.64557 47.3586 7.64557 46.9696C7.64557 46.603 7.55579 46.3187 7.37624 46.1167C7.19669 45.9072 6.90867 45.7052 6.51216 45.5107L6.05207 45.3087C5.40868 45.0244 4.9037 44.699 4.53712 44.3324C4.17802 43.9584 3.99847 43.4646 3.99847 42.8511C3.99847 42.4097 4.11069 42.0282 4.33513 41.7065C4.56705 41.3848 4.885 41.1379 5.28898 40.9659C5.70045 40.7938 6.17925 40.7078 6.72538 40.7078C7.12188 40.7078 7.49594 40.7601 7.84756 40.8649C8.20666 40.9696 8.51713 41.1118 8.77897 41.2913L8.71164 42.6379H8.59942L8.13933 41.7963C8.01215 41.5345 7.88497 41.3512 7.75779 41.2464C7.6306 41.1342 7.48472 41.0557 7.32013 41.0108C7.22288 40.9808 7.1331 40.9621 7.05081 40.9547C6.96852 40.9397 6.86378 40.9322 6.7366 40.9322C6.35506 40.9322 6.03337 41.0444 5.77152 41.2689C5.50968 41.4858 5.37876 41.7813 5.37876 42.1554C5.37876 42.5369 5.47976 42.8437 5.68175 43.0756C5.88374 43.3 6.17925 43.502 6.56827 43.6816L7.08448 43.906C7.80267 44.2202 8.31888 44.5569 8.63309 44.916C8.9473 45.2676 9.1044 45.7239 9.1044 46.285C9.1044 46.9434 8.85378 47.482 8.35254 47.901C7.85878 48.3124 7.15555 48.5182 6.24284 48.5182Z" fill="white"/>
  <path d="M50.1703 55.9532V52.6802H52.1528V53.0356H50.535V55.5979H52.1435V55.9532H50.1703ZM50.3386 54.4477V54.0923H51.891V54.4477H50.3386Z" fill="white"/>
  <path d="M44.4019 56C44.1619 56 43.939 55.9579 43.7333 55.8738C43.5276 55.7896 43.3468 55.6727 43.1909 55.5231C43.0351 55.3735 42.9135 55.1973 42.8262 54.9947C42.742 54.789 42.7 54.5661 42.7 54.3261C42.7 54.0861 42.742 53.8647 42.8262 53.6621C42.9135 53.4564 43.0319 53.2787 43.1816 53.1291C43.3343 52.9795 43.512 52.8641 43.7146 52.7831C43.9203 52.6989 44.1401 52.6568 44.3739 52.6568C44.5391 52.6568 44.7012 52.6802 44.8602 52.727C45.0222 52.7737 45.1688 52.8392 45.2997 52.9234C45.4306 53.0075 45.5366 53.1026 45.6176 53.2086L45.3745 53.4564C45.2872 53.366 45.189 53.2881 45.0799 53.2226C44.9708 53.1571 44.8555 53.1057 44.7339 53.0683C44.6155 53.0309 44.497 53.0122 44.3786 53.0122C44.1946 53.0122 44.0232 53.0449 43.8642 53.1104C43.7084 53.1758 43.5712 53.2678 43.4528 53.3862C43.3343 53.5016 43.2423 53.6403 43.1769 53.8024C43.1114 53.9614 43.0787 54.1359 43.0787 54.3261C43.0787 54.51 43.1114 54.683 43.1769 54.8451C43.2455 55.0041 43.3405 55.1443 43.4621 55.2659C43.5868 55.3844 43.7302 55.4763 43.8923 55.5418C44.0544 55.6072 44.2289 55.64 44.416 55.64C44.5625 55.64 44.6996 55.6181 44.8274 55.5745C44.9583 55.5309 45.0721 55.4701 45.1688 55.3922C45.2654 55.3111 45.3402 55.2176 45.3932 55.1116C45.4462 55.0056 45.4727 54.8918 45.4727 54.7703V54.6066L45.5475 54.7001H44.3973V54.3401H45.8374C45.8405 54.365 45.8436 54.3947 45.8467 54.4289C45.8499 54.4601 45.8514 54.4929 45.8514 54.5271C45.8545 54.5583 45.8561 54.5879 45.8561 54.616C45.8561 54.8186 45.8187 55.0056 45.7439 55.1771C45.6691 55.3454 45.5646 55.4919 45.4306 55.6166C45.2997 55.7382 45.1469 55.8332 44.9724 55.9018C44.7978 55.9673 44.6077 56 44.4019 56Z" fill="white"/>
  <path d="M35.8859 55.9532L37.139 52.6802H37.5551L38.7989 55.9532H38.4014L37.6019 53.8305C37.58 53.7712 37.5551 53.7026 37.5271 53.6247C37.5021 53.5437 37.4741 53.4611 37.4429 53.3769C37.4148 53.2896 37.3868 53.2055 37.3587 53.1244C37.3338 53.0434 37.3104 52.9717 37.2886 52.9093H37.3821C37.3572 52.9873 37.3307 53.0667 37.3026 53.1478C37.2777 53.2257 37.2512 53.3052 37.2231 53.3862C37.1951 53.4642 37.167 53.5421 37.139 53.62C37.1109 53.698 37.0829 53.7759 37.0548 53.8538L36.2599 55.9532H35.8859ZM36.4189 55.0508L36.5545 54.6955H38.1022L38.2518 55.0508H36.4189Z" fill="white"/>
  <path d="M30.8822 55.9532V53.0356H29.9471V52.6802H32.2195V53.0356H31.247V55.9532H30.8822Z" fill="white"/>
  <path d="M24.4094 55.9532V55.6072H24.9378V53.0262H24.4094V52.6802H25.8308V53.0262H25.3025V55.6072H25.8308V55.9532H24.4094Z" fill="white"/>
  <path d="M17.8299 55.9532V52.6802H19.1111C19.3012 52.6802 19.4727 52.7254 19.6254 52.8158C19.7813 52.9031 19.9044 53.0231 19.9948 53.1758C20.0852 53.3286 20.1304 53.5016 20.1304 53.6949C20.1304 53.8756 20.0868 54.0393 19.9995 54.1858C19.9122 54.3323 19.7937 54.4492 19.6441 54.5365C19.4945 54.6207 19.3262 54.6627 19.1391 54.6627H18.1946V55.9532H17.8299ZM19.8265 55.9532L19.0035 54.5131L19.3542 54.3915L20.2613 55.9532H19.8265ZM18.1946 54.3074H19.1719C19.2872 54.3074 19.3885 54.2809 19.4758 54.2279C19.5631 54.1749 19.6317 54.1032 19.6815 54.0128C19.7314 53.9193 19.7563 53.8133 19.7563 53.6949C19.7563 53.5671 19.7267 53.4533 19.6675 53.3535C19.6083 53.2538 19.5257 53.1758 19.4197 53.1197C19.3168 53.0636 19.1984 53.0356 19.0643 53.0356H18.1946V54.3074Z" fill="white"/>
  <path d="M11.3838 55.9532V52.6802H13.3663V53.0356H11.7485V55.5979H13.357V55.9532H11.3838ZM11.5521 54.4477V54.0923H13.1045V54.4477H11.5521Z" fill="white"/>
  <path d="M6.40894 55.9532V52.6802H6.77365V55.9532H6.40894ZM4.22068 55.9532V52.6802H4.58539V55.9532H4.22068ZM4.39836 54.4991V54.1437H6.56324V54.4991H4.39836Z" fill="white"/>
</svg>