<svg xmlns="http://www.w3.org/2000/svg" width="30" height="30" viewBox="0 0 30 30" fill="none">
  <g clip-path="url(#clip0_444_8088)">
    <mask id="path-1-outside-1_444_8088" maskUnits="userSpaceOnUse" x="-1" y="4" width="32" height="22" fill="black">
      <rect fill="white" x="-1" y="4" width="32" height="22"/>
      <path d="M25.625 16.25C25.2542 16.25 24.8916 16.36 24.5833 16.566C24.275 16.772 24.0346 17.0649 23.8927 17.4075C23.7508 17.7501 23.7137 18.1271 23.786 18.4908C23.8584 18.8545 24.037 19.1886 24.2992 19.4508C24.5614 19.713 24.8955 19.8916 25.2592 19.964C25.6229 20.0363 25.9999 19.9992 26.3425 19.8573C26.6851 19.7154 26.978 19.475 27.184 19.1667C27.39 18.8584 27.5 18.4958 27.5 18.125C27.5 17.6277 27.3025 17.1508 26.9508 16.7992C26.5992 16.4475 26.1223 16.25 25.625 16.25ZM25.625 18.75C25.5014 18.75 25.3806 18.7133 25.2778 18.6447C25.175 18.576 25.0949 18.4784 25.0476 18.3642C25.0003 18.25 24.9879 18.1243 25.012 18.0031C25.0361 17.8818 25.0956 17.7705 25.1831 17.6831C25.2705 17.5956 25.3818 17.5361 25.5031 17.512C25.6243 17.4879 25.75 17.5003 25.8642 17.5476C25.9784 17.5949 26.076 17.675 26.1447 17.7778C26.2133 17.8805 26.25 18.0014 26.25 18.125C26.25 18.2908 26.1842 18.4497 26.0669 18.5669C25.9497 18.6842 25.7908 18.75 25.625 18.75ZM26.875 5H3.125C2.2962 5 1.50134 5.32924 0.915291 5.91529C0.32924 6.50134 6.51427e-08 7.2962 6.51427e-08 8.125V19.375C-0.000146969 20.0954 0.248615 20.7937 0.704184 21.3518C1.15975 21.9099 1.79415 22.2934 2.5 22.4375V23.125C2.5 23.6223 2.69754 24.0992 3.04917 24.4508C3.40081 24.8025 3.87772 25 4.375 25C4.87228 25 5.34919 24.8025 5.70083 24.4508C6.05246 24.0992 6.25 23.6223 6.25 23.125V22.5H23.75V23.125C23.75 23.6223 23.9475 24.0992 24.2992 24.4508C24.6508 24.8025 25.1277 25 25.625 25C26.1223 25 26.5992 24.8025 26.9508 24.4508C27.3025 24.0992 27.5 23.6223 27.5 23.125V22.4375C28.2059 22.2934 28.8402 21.9099 29.2958 21.3518C29.7514 20.7937 30.0001 20.0954 30 19.375V8.125C30 7.71462 29.9192 7.30826 29.7621 6.92911C29.6051 6.54997 29.3749 6.20547 29.0847 5.91529C28.7945 5.62511 28.45 5.39492 28.0709 5.23788C27.6917 5.08083 27.2854 5 26.875 5ZM5 23.125C5 23.2908 4.93415 23.4497 4.81694 23.5669C4.69973 23.6842 4.54076 23.75 4.375 23.75C4.20924 23.75 4.05027 23.6842 3.93306 23.5669C3.81585 23.4497 3.75 23.2908 3.75 23.125V22.5H5V23.125ZM21.25 21.25H3.125C2.73816 21.2489 2.36112 21.1282 2.04558 20.9044C1.73004 20.6806 1.49145 20.3647 1.3625 20H21.25V21.25ZM21.25 18.75H1.25V8.75H21.25V18.75ZM21.25 7.5H1.3625C1.49145 7.13528 1.73004 6.81937 2.04558 6.59559C2.36112 6.3718 2.73816 6.25109 3.125 6.25H21.25V7.5ZM26.25 23.125C26.25 23.2908 26.1842 23.4497 26.0669 23.5669C25.9497 23.6842 25.7908 23.75 25.625 23.75C25.4592 23.75 25.3003 23.6842 25.1831 23.5669C25.0658 23.4497 25 23.2908 25 23.125V22.5H26.25V23.125ZM28.75 19.375C28.75 19.8723 28.5525 20.3492 28.2008 20.7008C27.8492 21.0525 27.3723 21.25 26.875 21.25H22.5V6.25H26.875C27.3723 6.25 27.8492 6.44754 28.2008 6.79917C28.5525 7.15081 28.75 7.62772 28.75 8.125V19.375ZM18.9625 16.875C19.1283 16.875 19.2872 16.8092 19.4044 16.6919C19.5217 16.5747 19.5875 16.4158 19.5875 16.25V11.25C19.5875 11.0842 19.5217 10.9253 19.4044 10.8081C19.2872 10.6908 19.1283 10.625 18.9625 10.625C18.7967 10.625 18.6378 10.6908 18.5206 10.8081C18.4033 10.9253 18.3375 11.0842 18.3375 11.25V16.25C18.3375 16.4158 18.4033 16.5747 18.5206 16.6919C18.6378 16.8092 18.7967 16.875 18.9625 16.875ZM26.875 12.5H24.375C24.2092 12.5 24.0503 12.5658 23.9331 12.6831C23.8158 12.8003 23.75 12.9592 23.75 13.125C23.75 13.2908 23.8158 13.4497 23.9331 13.5669C24.0503 13.6842 24.2092 13.75 24.375 13.75H26.875C27.0408 13.75 27.1997 13.6842 27.3169 13.5669C27.4342 13.4497 27.5 13.2908 27.5 13.125C27.5 12.9592 27.4342 12.8003 27.3169 12.6831C27.1997 12.5658 27.0408 12.5 26.875 12.5ZM26.875 7.5H24.375C24.2092 7.5 24.0503 7.56585 23.9331 7.68306C23.8158 7.80027 23.75 7.95924 23.75 8.125C23.75 8.29076 23.8158 8.44973 23.9331 8.56694C24.0503 8.68415 24.2092 8.75 24.375 8.75H26.875C27.0408 8.75 27.1997 8.68415 27.3169 8.56694C27.4342 8.44973 27.5 8.29076 27.5 8.125C27.5 7.95924 27.4342 7.80027 27.3169 7.68306C27.1997 7.56585 27.0408 7.5 26.875 7.5ZM26.875 10H24.375C24.2092 10 24.0503 10.0658 23.9331 10.1831C23.8158 10.3003 23.75 10.4592 23.75 10.625C23.75 10.7908 23.8158 10.9497 23.9331 11.0669C24.0503 11.1842 24.2092 11.25 24.375 11.25H26.875C27.0408 11.25 27.1997 11.1842 27.3169 11.0669C27.4342 10.9497 27.5 10.7908 27.5 10.625C27.5 10.4592 27.4342 10.3003 27.3169 10.1831C27.1997 10.0658 27.0408 10 26.875 10Z"/>
    </mask>
    <path d="M25.625 16.25C25.2542 16.25 24.8916 16.36 24.5833 16.566C24.275 16.772 24.0346 17.0649 23.8927 17.4075C23.7508 17.7501 23.7137 18.1271 23.786 18.4908C23.8584 18.8545 24.037 19.1886 24.2992 19.4508C24.5614 19.713 24.8955 19.8916 25.2592 19.964C25.6229 20.0363 25.9999 19.9992 26.3425 19.8573C26.6851 19.7154 26.978 19.475 27.184 19.1667C27.39 18.8584 27.5 18.4958 27.5 18.125C27.5 17.6277 27.3025 17.1508 26.9508 16.7992C26.5992 16.4475 26.1223 16.25 25.625 16.25ZM25.625 18.75C25.5014 18.75 25.3806 18.7133 25.2778 18.6447C25.175 18.576 25.0949 18.4784 25.0476 18.3642C25.0003 18.25 24.9879 18.1243 25.012 18.0031C25.0361 17.8818 25.0956 17.7705 25.1831 17.6831C25.2705 17.5956 25.3818 17.5361 25.5031 17.512C25.6243 17.4879 25.75 17.5003 25.8642 17.5476C25.9784 17.5949 26.076 17.675 26.1447 17.7778C26.2133 17.8805 26.25 18.0014 26.25 18.125C26.25 18.2908 26.1842 18.4497 26.0669 18.5669C25.9497 18.6842 25.7908 18.75 25.625 18.75ZM26.875 5H3.125C2.2962 5 1.50134 5.32924 0.915291 5.91529C0.32924 6.50134 6.51427e-08 7.2962 6.51427e-08 8.125V19.375C-0.000146969 20.0954 0.248615 20.7937 0.704184 21.3518C1.15975 21.9099 1.79415 22.2934 2.5 22.4375V23.125C2.5 23.6223 2.69754 24.0992 3.04917 24.4508C3.40081 24.8025 3.87772 25 4.375 25C4.87228 25 5.34919 24.8025 5.70083 24.4508C6.05246 24.0992 6.25 23.6223 6.25 23.125V22.5H23.75V23.125C23.75 23.6223 23.9475 24.0992 24.2992 24.4508C24.6508 24.8025 25.1277 25 25.625 25C26.1223 25 26.5992 24.8025 26.9508 24.4508C27.3025 24.0992 27.5 23.6223 27.5 23.125V22.4375C28.2059 22.2934 28.8402 21.9099 29.2958 21.3518C29.7514 20.7937 30.0001 20.0954 30 19.375V8.125C30 7.71462 29.9192 7.30826 29.7621 6.92911C29.6051 6.54997 29.3749 6.20547 29.0847 5.91529C28.7945 5.62511 28.45 5.39492 28.0709 5.23788C27.6917 5.08083 27.2854 5 26.875 5ZM5 23.125C5 23.2908 4.93415 23.4497 4.81694 23.5669C4.69973 23.6842 4.54076 23.75 4.375 23.75C4.20924 23.75 4.05027 23.6842 3.93306 23.5669C3.81585 23.4497 3.75 23.2908 3.75 23.125V22.5H5V23.125ZM21.25 21.25H3.125C2.73816 21.2489 2.36112 21.1282 2.04558 20.9044C1.73004 20.6806 1.49145 20.3647 1.3625 20H21.25V21.25ZM21.25 18.75H1.25V8.75H21.25V18.75ZM21.25 7.5H1.3625C1.49145 7.13528 1.73004 6.81937 2.04558 6.59559C2.36112 6.3718 2.73816 6.25109 3.125 6.25H21.25V7.5ZM26.25 23.125C26.25 23.2908 26.1842 23.4497 26.0669 23.5669C25.9497 23.6842 25.7908 23.75 25.625 23.75C25.4592 23.75 25.3003 23.6842 25.1831 23.5669C25.0658 23.4497 25 23.2908 25 23.125V22.5H26.25V23.125ZM28.75 19.375C28.75 19.8723 28.5525 20.3492 28.2008 20.7008C27.8492 21.0525 27.3723 21.25 26.875 21.25H22.5V6.25H26.875C27.3723 6.25 27.8492 6.44754 28.2008 6.79917C28.5525 7.15081 28.75 7.62772 28.75 8.125V19.375ZM18.9625 16.875C19.1283 16.875 19.2872 16.8092 19.4044 16.6919C19.5217 16.5747 19.5875 16.4158 19.5875 16.25V11.25C19.5875 11.0842 19.5217 10.9253 19.4044 10.8081C19.2872 10.6908 19.1283 10.625 18.9625 10.625C18.7967 10.625 18.6378 10.6908 18.5206 10.8081C18.4033 10.9253 18.3375 11.0842 18.3375 11.25V16.25C18.3375 16.4158 18.4033 16.5747 18.5206 16.6919C18.6378 16.8092 18.7967 16.875 18.9625 16.875ZM26.875 12.5H24.375C24.2092 12.5 24.0503 12.5658 23.9331 12.6831C23.8158 12.8003 23.75 12.9592 23.75 13.125C23.75 13.2908 23.8158 13.4497 23.9331 13.5669C24.0503 13.6842 24.2092 13.75 24.375 13.75H26.875C27.0408 13.75 27.1997 13.6842 27.3169 13.5669C27.4342 13.4497 27.5 13.2908 27.5 13.125C27.5 12.9592 27.4342 12.8003 27.3169 12.6831C27.1997 12.5658 27.0408 12.5 26.875 12.5ZM26.875 7.5H24.375C24.2092 7.5 24.0503 7.56585 23.9331 7.68306C23.8158 7.80027 23.75 7.95924 23.75 8.125C23.75 8.29076 23.8158 8.44973 23.9331 8.56694C24.0503 8.68415 24.2092 8.75 24.375 8.75H26.875C27.0408 8.75 27.1997 8.68415 27.3169 8.56694C27.4342 8.44973 27.5 8.29076 27.5 8.125C27.5 7.95924 27.4342 7.80027 27.3169 7.68306C27.1997 7.56585 27.0408 7.5 26.875 7.5ZM26.875 10H24.375C24.2092 10 24.0503 10.0658 23.9331 10.1831C23.8158 10.3003 23.75 10.4592 23.75 10.625C23.75 10.7908 23.8158 10.9497 23.9331 11.0669C24.0503 11.1842 24.2092 11.25 24.375 11.25H26.875C27.0408 11.25 27.1997 11.1842 27.3169 11.0669C27.4342 10.9497 27.5 10.7908 27.5 10.625C27.5 10.4592 27.4342 10.3003 27.3169 10.1831C27.1997 10.0658 27.0408 10 26.875 10Z" fill="#070E05"/>
    <path d="M25.625 16.25C25.2542 16.25 24.8916 16.36 24.5833 16.566C24.275 16.772 24.0346 17.0649 23.8927 17.4075C23.7508 17.7501 23.7137 18.1271 23.786 18.4908C23.8584 18.8545 24.037 19.1886 24.2992 19.4508C24.5614 19.713 24.8955 19.8916 25.2592 19.964C25.6229 20.0363 25.9999 19.9992 26.3425 19.8573C26.6851 19.7154 26.978 19.475 27.184 19.1667C27.39 18.8584 27.5 18.4958 27.5 18.125C27.5 17.6277 27.3025 17.1508 26.9508 16.7992C26.5992 16.4475 26.1223 16.25 25.625 16.25ZM25.625 18.75C25.5014 18.75 25.3806 18.7133 25.2778 18.6447C25.175 18.576 25.0949 18.4784 25.0476 18.3642C25.0003 18.25 24.9879 18.1243 25.012 18.0031C25.0361 17.8818 25.0956 17.7705 25.1831 17.6831C25.2705 17.5956 25.3818 17.5361 25.5031 17.512C25.6243 17.4879 25.75 17.5003 25.8642 17.5476C25.9784 17.5949 26.076 17.675 26.1447 17.7778C26.2133 17.8805 26.25 18.0014 26.25 18.125C26.25 18.2908 26.1842 18.4497 26.0669 18.5669C25.9497 18.6842 25.7908 18.75 25.625 18.75ZM26.875 5H3.125C2.2962 5 1.50134 5.32924 0.915291 5.91529C0.32924 6.50134 6.51427e-08 7.2962 6.51427e-08 8.125V19.375C-0.000146969 20.0954 0.248615 20.7937 0.704184 21.3518C1.15975 21.9099 1.79415 22.2934 2.5 22.4375V23.125C2.5 23.6223 2.69754 24.0992 3.04917 24.4508C3.40081 24.8025 3.87772 25 4.375 25C4.87228 25 5.34919 24.8025 5.70083 24.4508C6.05246 24.0992 6.25 23.6223 6.25 23.125V22.5H23.75V23.125C23.75 23.6223 23.9475 24.0992 24.2992 24.4508C24.6508 24.8025 25.1277 25 25.625 25C26.1223 25 26.5992 24.8025 26.9508 24.4508C27.3025 24.0992 27.5 23.6223 27.5 23.125V22.4375C28.2059 22.2934 28.8402 21.9099 29.2958 21.3518C29.7514 20.7937 30.0001 20.0954 30 19.375V8.125C30 7.71462 29.9192 7.30826 29.7621 6.92911C29.6051 6.54997 29.3749 6.20547 29.0847 5.91529C28.7945 5.62511 28.45 5.39492 28.0709 5.23788C27.6917 5.08083 27.2854 5 26.875 5ZM5 23.125C5 23.2908 4.93415 23.4497 4.81694 23.5669C4.69973 23.6842 4.54076 23.75 4.375 23.75C4.20924 23.75 4.05027 23.6842 3.93306 23.5669C3.81585 23.4497 3.75 23.2908 3.75 23.125V22.5H5V23.125ZM21.25 21.25H3.125C2.73816 21.2489 2.36112 21.1282 2.04558 20.9044C1.73004 20.6806 1.49145 20.3647 1.3625 20H21.25V21.25ZM21.25 18.75H1.25V8.75H21.25V18.75ZM21.25 7.5H1.3625C1.49145 7.13528 1.73004 6.81937 2.04558 6.59559C2.36112 6.3718 2.73816 6.25109 3.125 6.25H21.25V7.5ZM26.25 23.125C26.25 23.2908 26.1842 23.4497 26.0669 23.5669C25.9497 23.6842 25.7908 23.75 25.625 23.75C25.4592 23.75 25.3003 23.6842 25.1831 23.5669C25.0658 23.4497 25 23.2908 25 23.125V22.5H26.25V23.125ZM28.75 19.375C28.75 19.8723 28.5525 20.3492 28.2008 20.7008C27.8492 21.0525 27.3723 21.25 26.875 21.25H22.5V6.25H26.875C27.3723 6.25 27.8492 6.44754 28.2008 6.79917C28.5525 7.15081 28.75 7.62772 28.75 8.125V19.375ZM18.9625 16.875C19.1283 16.875 19.2872 16.8092 19.4044 16.6919C19.5217 16.5747 19.5875 16.4158 19.5875 16.25V11.25C19.5875 11.0842 19.5217 10.9253 19.4044 10.8081C19.2872 10.6908 19.1283 10.625 18.9625 10.625C18.7967 10.625 18.6378 10.6908 18.5206 10.8081C18.4033 10.9253 18.3375 11.0842 18.3375 11.25V16.25C18.3375 16.4158 18.4033 16.5747 18.5206 16.6919C18.6378 16.8092 18.7967 16.875 18.9625 16.875ZM26.875 12.5H24.375C24.2092 12.5 24.0503 12.5658 23.9331 12.6831C23.8158 12.8003 23.75 12.9592 23.75 13.125C23.75 13.2908 23.8158 13.4497 23.9331 13.5669C24.0503 13.6842 24.2092 13.75 24.375 13.75H26.875C27.0408 13.75 27.1997 13.6842 27.3169 13.5669C27.4342 13.4497 27.5 13.2908 27.5 13.125C27.5 12.9592 27.4342 12.8003 27.3169 12.6831C27.1997 12.5658 27.0408 12.5 26.875 12.5ZM26.875 7.5H24.375C24.2092 7.5 24.0503 7.56585 23.9331 7.68306C23.8158 7.80027 23.75 7.95924 23.75 8.125C23.75 8.29076 23.8158 8.44973 23.9331 8.56694C24.0503 8.68415 24.2092 8.75 24.375 8.75H26.875C27.0408 8.75 27.1997 8.68415 27.3169 8.56694C27.4342 8.44973 27.5 8.29076 27.5 8.125C27.5 7.95924 27.4342 7.80027 27.3169 7.68306C27.1997 7.56585 27.0408 7.5 26.875 7.5ZM26.875 10H24.375C24.2092 10 24.0503 10.0658 23.9331 10.1831C23.8158 10.3003 23.75 10.4592 23.75 10.625C23.75 10.7908 23.8158 10.9497 23.9331 11.0669C24.0503 11.1842 24.2092 11.25 24.375 11.25H26.875C27.0408 11.25 27.1997 11.1842 27.3169 11.0669C27.4342 10.9497 27.5 10.7908 27.5 10.625C27.5 10.4592 27.4342 10.3003 27.3169 10.1831C27.1997 10.0658 27.0408 10 26.875 10Z" stroke="#070E05" stroke-width="0.4" mask="url(#path-1-outside-1_444_8088)"/>
  </g>
  <defs>
    <clipPath id="clip0_444_8088">
      <rect width="30" height="30" fill="white"/>
    </clipPath>
  </defs>
</svg>