<svg xmlns="http://www.w3.org/2000/svg" width="36" height="36" viewBox="0 0 36 36" fill="none">
  <path d="M30.0917 5.73486H28.3345C28.0722 5.73486 27.9061 5.90101 27.9061 6.0846H27.906V11.7672C27.906 12.0032 28.1858 12.1256 28.4743 12.1256C28.754 12.1256 29.0425 12.0033 29.0425 11.7672V9.73893H30.0218C31.1757 9.73893 32.0762 9.18811 32.0762 7.75437V7.70199C32.0762 6.26818 31.202 5.73486 30.0917 5.73486ZM30.9396 7.84184C30.9396 8.52373 30.59 8.84723 30.0217 8.84723H29.0425V6.73154H30.0217C30.59 6.73154 30.9396 7.05505 30.9396 7.73693V7.84184Z" fill="white"/>
  <path d="M20.6063 7.95633C18.9467 6.29668 16.7402 5.38269 14.3931 5.38269C12.046 5.38269 9.83943 6.29668 8.17978 7.95633C7.97946 8.15658 7.97946 8.48128 8.17978 8.6816C8.38003 8.88185 8.70473 8.88185 8.90498 8.6816C10.3709 7.21573 12.3199 6.4084 14.393 6.4084C16.4661 6.4084 18.4151 7.21573 19.881 8.6816C19.9812 8.78172 20.1125 8.83179 20.2437 8.83179C20.3749 8.83179 20.5061 8.78172 20.6063 8.6816C20.8066 8.48135 20.8066 8.15658 20.6063 7.95633Z" fill="white"/>
  <path d="M18.4905 10.0721C16.2311 7.81271 12.5548 7.81271 10.2955 10.0721C10.0952 10.2724 10.0952 10.5971 10.2955 10.7974C10.4958 10.9976 10.8205 10.9976 11.0208 10.7974C12.8803 8.93799 15.9058 8.93799 17.7653 10.7974C17.8654 10.8975 17.9966 10.9476 18.1279 10.9476C18.2591 10.9476 18.3903 10.8975 18.4905 10.7974C18.6908 10.5971 18.6908 10.2724 18.4905 10.0721Z" fill="white"/>
  <path d="M16.4083 12.1543C15.2971 11.0431 13.489 11.0431 12.3778 12.1543C12.1775 12.3546 12.1775 12.6793 12.3778 12.8796C12.578 13.0799 12.9028 13.0799 13.103 12.8796C13.8144 12.1683 14.9717 12.1683 15.6831 12.8796C15.7832 12.9798 15.9145 13.0298 16.0457 13.0298C16.1769 13.0298 16.3082 12.9797 16.4083 12.8796C16.6086 12.6793 16.6086 12.3547 16.4083 12.1543Z" fill="white"/>
  <path d="M25.2366 22.1426C25.0147 22.0205 24.7957 21.8867 24.5859 21.745L21.1937 19.4534C20.1642 18.7579 18.9632 18.3903 17.7208 18.3903H11.4946C9.84191 18.3903 8.28688 19.0327 7.1159 20.1992C6.51403 20.7989 5.82835 21.3005 5.0779 21.6902C4.63409 21.9206 4.3584 22.3742 4.3584 22.8739C4.3584 23.6098 4.95704 24.2085 5.69292 24.2085H7.81565C8.09887 24.2085 8.32851 23.9788 8.32851 23.6956C8.32851 23.4124 8.09887 23.1827 7.81565 23.1827H5.69292C5.52263 23.1827 5.38404 23.0442 5.38404 22.8739C5.38404 22.7585 5.44782 22.6537 5.55054 22.6004C6.39366 22.1626 7.16393 21.5992 7.83977 20.9258C8.81711 19.9521 10.1151 19.4159 11.4945 19.4159H12.8885V23.1827H11.1847C10.9014 23.1827 10.6718 23.4124 10.6718 23.6956C10.6718 23.9788 10.9014 24.2085 11.1847 24.2085H25.247C25.6686 24.2085 26.0115 23.8655 26.0115 23.4439C26.0115 22.904 25.7145 22.4054 25.2366 22.1426ZM13.9143 23.1828V19.416H17.7209C18.7579 19.416 19.7603 19.7228 20.6196 20.3033L24.0118 22.5949C24.2473 22.754 24.4931 22.9042 24.7424 23.0413C24.807 23.0768 24.861 23.1256 24.9017 23.1828H13.9143Z" fill="white"/>
  <path d="M15.1851 24.9882H13.601C13.3178 24.9882 13.0881 25.2178 13.0881 25.501C13.0881 25.7842 13.3178 26.0139 13.601 26.0139H15.1851C15.4683 26.0139 15.698 25.7842 15.698 25.501C15.698 25.2178 15.4683 24.9882 15.1851 24.9882Z" fill="white"/>
  <path d="M35.5575 24.5577L35.3955 24.2888C34.785 23.2757 33.7695 22.5623 32.6094 22.3316L31.2854 22.0682V15.3571H34.7118C35.4173 15.3571 35.9912 14.7832 35.9912 14.0777V4.08983C35.9912 3.38431 35.4173 2.81042 34.7118 2.81042H24.7239C24.0184 2.81042 23.4445 3.38438 23.4445 4.08983V7.8786C23.4445 8.16182 23.6741 8.39146 23.9573 8.39146C24.2406 8.39146 24.4702 8.16182 24.4702 7.8786V4.08983C24.4702 3.9499 24.584 3.83607 24.724 3.83607H34.712C34.8519 3.83607 34.9657 3.9499 34.9657 4.08983V14.0778C34.9657 14.2177 34.8519 14.3316 34.712 14.3316H24.7239C24.584 14.3316 24.4701 14.2177 24.4701 14.0778V11.2127C24.4701 10.9294 24.2406 10.6998 23.9573 10.6998C23.674 10.6998 23.4444 10.9294 23.4444 11.2127V14.0778C23.4444 14.7833 24.0184 15.3572 24.7238 15.3572H28.6093V21.5362L27.9287 21.4008C26.9893 21.214 26.0735 20.6471 25.4663 20.2368L22.0742 17.9453C20.7836 17.0735 19.2783 16.6126 17.7209 16.6126H11.4947C9.42296 16.6126 7.4737 17.4179 6.00607 18.8801C5.07739 19.8053 3.90838 20.4364 2.62539 20.7051L1.88908 20.8593C0.794458 21.0885 0 22.0667 0 23.1851V28.1519C0 28.7444 0.349803 29.2828 0.891278 29.5234L2.93399 30.4312C3.05753 31.0772 3.36873 31.6941 3.86781 32.1931C4.53106 32.8564 5.4023 33.188 6.27361 33.188C7.14492 33.188 8.01609 32.8564 8.67941 32.1931C9.106 31.7665 9.39456 31.2538 9.54678 30.7105H26.5789C26.7312 31.2538 27.0198 31.7665 27.4464 32.1931C28.089 32.8357 28.9433 33.1897 29.8522 33.1897C30.761 33.1897 31.6154 32.8358 32.2581 32.1931C32.6846 31.7665 32.9732 31.2538 33.1254 30.7105H34.0983C35.1469 30.7105 36 29.8574 36 28.8088V26.1487C35.9999 25.5881 35.8469 25.0379 35.5575 24.5577ZM29.6351 15.3571H30.2597V21.8643L29.6351 21.74V15.3571ZM7.95407 31.4679C7.5052 31.9168 6.90839 32.164 6.27354 32.164C5.63869 32.164 5.04188 31.9168 4.59301 31.4679C3.87294 30.7479 3.71277 29.6771 4.11172 28.8006C4.11495 28.7935 4.11805 28.7864 4.12128 28.7794C4.13344 28.7534 4.14631 28.7277 4.15946 28.7021C4.16565 28.69 4.17183 28.6779 4.1783 28.666C4.19019 28.6438 4.20256 28.6217 4.21522 28.5998C4.22394 28.5846 4.23287 28.5697 4.24194 28.5548C4.25368 28.5354 4.26556 28.5162 4.27794 28.4971C4.28912 28.4799 4.30065 28.4629 4.31232 28.4459C4.32385 28.4291 4.33531 28.4122 4.34726 28.3957C4.36097 28.3768 4.37525 28.3582 4.38959 28.3397C4.40077 28.3252 4.41167 28.3106 4.4232 28.2963C4.44008 28.2754 4.45772 28.255 4.4753 28.2346C4.48536 28.223 4.49499 28.2111 4.50526 28.1997C4.53141 28.1706 4.55834 28.1422 4.58604 28.1142C4.58844 28.1119 4.59061 28.1093 4.59301 28.1069C4.59828 28.1017 4.60383 28.0967 4.60918 28.0915C4.63266 28.0685 4.65629 28.0457 4.6804 28.0238C4.68666 28.0181 4.69327 28.0129 4.6996 28.0072C4.72365 27.9859 4.74783 27.9648 4.77258 27.9446C4.7749 27.9427 4.77736 27.9409 4.77968 27.939C5.64895 27.2356 6.90269 27.2364 7.77091 27.9418C7.77189 27.9427 7.77295 27.9434 7.774 27.9442C7.80051 27.9658 7.82645 27.9885 7.85226 28.0114C7.8569 28.0155 7.86168 28.0193 7.86625 28.0235C7.89606 28.0504 7.92531 28.0782 7.954 28.1069C7.98494 28.1378 8.01475 28.1697 8.04372 28.2019C8.05645 28.2161 8.06847 28.2307 8.08077 28.2451C8.09582 28.2627 8.11094 28.2803 8.12542 28.2983C8.14166 28.3184 8.15734 28.339 8.17281 28.3595C8.18153 28.371 8.19018 28.3825 8.19862 28.3941C8.21739 28.42 8.23567 28.4461 8.25332 28.4726C8.25634 28.4771 8.2593 28.4817 8.26225 28.4862C8.86553 29.4076 8.76287 30.6591 7.95407 31.4679ZM31.5326 31.4679C31.0837 31.9168 30.4869 32.164 29.852 32.164C29.2172 32.164 28.6205 31.9168 28.1716 31.4679C27.3626 30.6591 27.26 29.4074 27.8633 28.4861C27.8662 28.4816 27.8691 28.4772 27.872 28.4728C27.8897 28.4463 27.908 28.42 27.9269 28.394C27.9353 28.3825 27.9438 28.3711 27.9525 28.3598C27.968 28.3391 27.9838 28.3185 28.0002 28.2982C28.0146 28.2804 28.0295 28.263 28.0445 28.2455C28.0569 28.231 28.0691 28.2162 28.0819 28.2019C28.1109 28.1697 28.1407 28.1379 28.1716 28.1069C28.6205 27.6581 29.2173 27.4108 29.8521 27.4108C30.487 27.4108 31.0838 27.6581 31.5326 28.1069C31.5636 28.1379 31.5934 28.1697 31.6224 28.202C31.6352 28.2162 31.6472 28.2308 31.6596 28.2453C31.6746 28.2628 31.6896 28.2804 31.7041 28.2983C31.7204 28.3185 31.7361 28.339 31.7516 28.3596C31.7602 28.3711 31.7689 28.3826 31.7773 28.3942C31.7961 28.4201 31.8145 28.4462 31.832 28.4727C31.8351 28.4772 31.838 28.4817 31.841 28.4862C32.4441 29.4076 32.3414 30.6591 31.5326 31.4679ZM34.9744 28.8088H34.9742C34.9742 29.2918 34.5812 29.6848 34.0982 29.6848H33.2539C33.2338 28.941 32.9712 28.2313 32.4987 27.6495C32.4956 27.6455 32.4925 27.6415 32.4893 27.6375C32.4601 27.6019 32.4298 27.5669 32.399 27.5322C32.3911 27.5233 32.3836 27.5142 32.3757 27.5053C32.3431 27.4694 32.3093 27.4342 32.275 27.3995C32.2692 27.3935 32.2638 27.3874 32.2579 27.3815C31.8161 26.9398 31.2742 26.6344 30.6833 26.4867C30.4147 26.4196 30.1361 26.3851 29.852 26.3851C29.6249 26.3851 29.4011 26.4072 29.1831 26.4504C28.5293 26.58 27.9282 26.8996 27.4462 27.3815C27.4405 27.3873 27.4352 27.3933 27.4295 27.3992C27.395 27.4341 27.3612 27.4694 27.3285 27.5055C27.3207 27.514 27.3136 27.5229 27.306 27.5314C27.2749 27.5664 27.2442 27.6017 27.2148 27.6377C27.2118 27.6413 27.2091 27.6451 27.2061 27.6487C26.7333 28.2306 26.4704 28.9407 26.4503 29.6849H9.67531C9.65513 28.9398 9.39174 28.2289 8.9177 27.6465C8.91552 27.6437 8.91341 27.641 8.91123 27.6382C8.88029 27.6004 8.84816 27.5634 8.81546 27.5266C8.80942 27.5199 8.80379 27.5129 8.79768 27.5062C8.75936 27.4639 8.71998 27.4223 8.67927 27.3816C8.51347 27.2158 8.3346 27.0707 8.14609 26.9463C7.58036 26.5732 6.92695 26.3867 6.27354 26.3867C5.4023 26.3867 4.53099 26.7183 3.86773 27.3816C3.82984 27.4195 3.7932 27.4584 3.75734 27.4977C3.74673 27.5094 3.73653 27.5213 3.72606 27.533C3.70074 27.5617 3.67585 27.5906 3.65159 27.6198C3.64084 27.6328 3.63008 27.6459 3.61953 27.6591C3.59443 27.6904 3.56996 27.722 3.54606 27.754C3.5386 27.764 3.53094 27.7738 3.5237 27.7838C3.45943 27.8718 3.39981 27.9625 3.34468 28.0555C3.34314 28.0581 3.34166 28.0608 3.34011 28.0634C3.31318 28.1092 3.28738 28.1556 3.2627 28.2025C3.262 28.2038 3.26129 28.2052 3.26052 28.2066C3.08171 28.5468 2.96148 28.9148 2.90636 29.2965L1.30795 28.5861C1.13653 28.5099 1.02578 28.3395 1.02578 28.1519V23.1851C1.02578 22.5494 1.4774 21.9934 2.09959 21.8631L2.8359 21.7089C4.31387 21.3993 5.66049 20.6723 6.73022 19.6066C8.00427 18.3373 9.69641 17.6382 11.4949 17.6382H17.7211C19.0731 17.6382 20.3799 18.0383 21.5002 18.7951L24.8924 21.0866C25.573 21.5465 26.6077 22.1837 27.7288 22.4067L32.4095 23.3375C33.2871 23.5121 34.0553 24.0517 34.5172 24.8182L34.6792 25.087C34.8723 25.4074 34.9744 25.7746 34.9744 26.1487V28.8088Z" fill="white"/>
  <path d="M7.37457 28.6864C7.08038 28.3923 6.68944 28.2303 6.27355 28.2303C5.85765 28.2303 5.46664 28.3923 5.1726 28.6864C4.87855 28.9804 4.71655 29.3714 4.71655 29.7873C4.71655 30.2032 4.87855 30.5942 5.1726 30.8883C5.46664 31.1823 5.85765 31.3443 6.27362 31.3443C6.68951 31.3443 7.08052 31.1824 7.37457 30.8883C7.98164 30.2812 7.98164 29.2935 7.37457 28.6864ZM6.64922 30.163C6.54889 30.2634 6.41544 30.3186 6.27355 30.3186C6.13159 30.3186 5.9982 30.2634 5.89787 30.1629C5.79753 30.0626 5.7422 29.9292 5.7422 29.7873C5.7422 29.6453 5.79746 29.5119 5.89787 29.4116C5.9982 29.3113 6.13159 29.2559 6.27355 29.2559C6.41544 29.2559 6.54889 29.3112 6.64922 29.4116C6.85636 29.6188 6.85636 29.9559 6.64922 30.163Z" fill="white"/>
  <path d="M30.9529 28.6865C30.6589 28.3923 30.2679 28.2303 29.8519 28.2303C29.436 28.2303 29.0451 28.3923 28.7509 28.6864C28.1439 29.2935 28.1439 30.2812 28.7509 30.8883C29.045 31.1824 29.436 31.3443 29.8519 31.3443C30.2679 31.3443 30.6588 31.1824 30.9529 30.8884C31.247 30.5943 31.4089 30.2033 31.4089 29.7874C31.4089 29.3715 31.247 28.9805 30.9529 28.6865ZM30.2276 30.1631C30.1273 30.2634 29.9939 30.3187 29.8519 30.3187C29.71 30.3187 29.5766 30.2634 29.4762 30.1631C29.2691 29.9559 29.2691 29.6189 29.4762 29.4117C29.5766 29.3114 29.71 29.2561 29.8519 29.2561C29.9939 29.2561 30.1273 29.3113 30.2277 29.4117C30.328 29.5121 30.3833 29.6454 30.3833 29.7874C30.3833 29.9292 30.3281 30.0627 30.2276 30.1631Z" fill="white"/>
</svg>