<svg xmlns="http://www.w3.org/2000/svg" width="24" height="24" viewBox="0 0 24 24" fill="none">
  <path d="M10.0461 13.9544L10.0458 13.9541C9.80003 13.7083 9.40073 13.7083 9.15496 13.9541L6.3899 16.7192V14.4C6.3899 14.0522 6.1077 13.77 5.7599 13.77C5.4121 13.77 5.1299 14.0522 5.1299 14.4V18.24C5.1299 18.3221 5.14625 18.4042 5.17894 18.4812C5.24238 18.6353 5.36579 18.7581 5.52005 18.8221L5.52179 18.8228C5.59499 18.8521 5.67626 18.87 5.7599 18.87H9.5999C9.9477 18.87 10.2299 18.5878 10.2299 18.24C10.2299 17.8922 9.9477 17.61 9.5999 17.61H7.28075L10.0448 14.8459C10.2915 14.5992 10.2915 14.2011 10.0461 13.9544ZM18.4811 5.17811L18.4811 5.17808L18.4782 5.17692C18.4047 5.148 18.3237 5.13002 18.2399 5.13002H14.3999C14.0521 5.13002 13.7699 5.41222 13.7699 5.76002C13.7699 6.10783 14.0521 6.39002 14.3999 6.39002H16.719L13.955 9.15412C13.7093 9.39981 13.7092 9.7989 13.9547 10.0447C14.0772 10.1683 14.2389 10.23 14.3999 10.23C14.5611 10.23 14.7222 10.1683 14.8453 10.0465L14.8458 10.0459L17.6099 7.28096V9.60002C17.6099 9.94783 17.8921 10.23 18.2399 10.23C18.5877 10.23 18.8699 9.94783 18.8699 9.60002V5.76002C18.8699 5.67797 18.8536 5.59589 18.8209 5.51881C18.7575 5.36488 18.6342 5.24211 18.4811 5.17811ZM19.1999 2.25002H4.7999C3.39422 2.25002 2.2499 3.3933 2.2499 4.80002V19.2C2.2499 20.6067 3.39422 21.75 4.7999 21.75H19.1999C20.6056 21.75 21.7499 20.6067 21.7499 19.2V4.80002C21.7499 3.3933 20.6056 2.25002 19.1999 2.25002ZM20.4899 19.2C20.4899 19.9111 19.911 20.49 19.1999 20.49H4.7999C4.08882 20.49 3.5099 19.9111 3.5099 19.2V4.80002C3.5099 4.08895 4.08882 3.51002 4.7999 3.51002H19.1999C19.911 3.51002 20.4899 4.08895 20.4899 4.80002V19.2Z" fill="#676767" stroke="#676767" stroke-width="0.3"/>
</svg>