<svg xmlns="http://www.w3.org/2000/svg" width="30" height="30" viewBox="0 0 30 30" fill="none">
  <path d="M29.119 4.31958H0.881016C0.394453 4.31958 0 4.71403 0 5.2006V21.4247C0 21.9113 0.394453 22.3058 0.881016 22.3058H11.8934V23.9184H9.51656C9.03 23.9184 8.63555 24.3129 8.63555 24.7994C8.63555 25.286 9.03 25.6805 9.51656 25.6805H20.4834C20.9699 25.6805 21.3644 25.286 21.3644 24.7994C21.3644 24.3129 20.9699 23.9184 20.4834 23.9184H18.1066V22.3058H29.119C29.6055 22.3058 30 21.9113 30 21.4247V5.2006C30 4.71403 29.6055 4.31958 29.119 4.31958ZM16.3446 23.9185H13.6554V22.3058H16.3446V23.9185ZM28.238 20.5438H1.76203V6.08167H28.238V20.5438Z" fill="#070E05"/>
</svg>