<svg xmlns="http://www.w3.org/2000/svg" width="30" height="30" viewBox="0 0 30 30" fill="none">
  <mask id="path-1-outside-1_444_8097" maskUnits="userSpaceOnUse" x="3.16602" y="0.875" width="23" height="28" fill="black">
    <rect fill="white" x="3.16602" y="0.875" width="23" height="28"/>
    <path fill-rule="evenodd" clip-rule="evenodd" d="M5.95316 1.875H24.0493C24.5231 1.87552 24.9773 2.06397 25.3124 2.39901C25.6474 2.73404 25.8359 3.1883 25.8364 3.66211V26.3379C25.8359 26.8117 25.6474 27.266 25.3124 27.601C24.9773 27.936 24.5231 28.1245 24.0493 28.125H5.95317C5.47937 28.1244 5.02514 27.936 4.6901 27.6009C4.35507 27.2659 4.16659 26.8117 4.16602 26.3379C4.17867 26.3201 4.16605 3.66211 4.16605 3.66211C4.16661 3.18831 4.35507 2.73408 4.6901 2.39905C5.02513 2.06402 5.47936 1.87556 5.95316 1.875ZM24.8989 7.03125V3.66211C24.8986 3.43686 24.809 3.22093 24.6497 3.06165C24.4904 2.90238 24.2745 2.81278 24.0493 2.8125H15.4678V7.03125H24.8989ZM14.5303 2.8125H5.95317C5.72792 2.81274 5.51195 2.90233 5.35267 3.06161C5.19339 3.22089 5.1038 3.43685 5.10356 3.66211V7.03125H14.5303V2.8125ZM5.95317 27.1875H24.0493C24.2745 27.1872 24.4904 27.0976 24.6497 26.9383C24.809 26.7791 24.8986 26.5631 24.8989 26.3379V7.96875H5.10356V26.3379C5.1038 26.5631 5.19339 26.7791 5.35267 26.9384C5.51195 27.0977 5.72792 27.1873 5.95317 27.1875ZM9.13064 11.7084C10.6876 10.1514 12.7986 9.27564 15.0005 9.27319C17.2024 9.27569 19.3133 10.1515 20.8703 11.7084C22.4272 13.2653 23.303 15.3763 23.3055 17.5781C22.851 28.5928 7.15147 28.5957 6.69531 17.5782C6.69782 15.3763 7.57365 13.2653 9.13064 11.7084ZM9.79324 22.7854C11.1745 24.1666 13.0472 24.9435 15.0005 24.9457C16.9538 24.9434 18.8265 24.1665 20.2077 22.7853C21.5888 21.4042 22.3658 19.5315 22.368 17.5782C21.9648 7.80693 8.03748 7.80433 7.63281 17.5782C7.63504 19.5315 8.412 21.4042 9.79324 22.7854ZM15.0012 11.6453C13.4283 11.647 11.9202 12.2727 10.808 13.3849C9.69576 14.4972 9.07013 16.0052 9.06836 17.5781C9.39422 25.4488 20.6094 25.4466 20.9341 17.5781C20.9323 16.0051 20.3066 14.4971 19.1944 13.3849C18.0822 12.2727 16.5741 11.647 15.0012 11.6453ZM15.0012 22.5735C13.6768 22.5719 12.4071 22.0452 11.4706 21.1087C10.5342 20.1722 10.0074 18.9025 10.0059 17.5781C10.2804 10.9511 19.7232 10.953 19.9966 17.5781C19.9951 18.9025 19.4683 20.1723 18.5318 21.1087C17.5953 22.0452 16.3256 22.572 15.0012 22.5735ZM12.3339 6.31688H7.30327C6.99765 6.31655 6.70463 6.19501 6.4885 5.97893C6.27237 5.76284 6.15078 5.46985 6.15039 5.16423V4.66069C6.15077 4.35504 6.27235 4.06202 6.48848 3.8459C6.7046 3.62977 6.99762 3.50819 7.30327 3.50781H12.3339C12.6395 3.50819 12.9325 3.62977 13.1487 3.8459C13.3648 4.06202 13.4864 4.35504 13.4867 4.66069V5.16422C13.4864 5.46984 13.3648 5.76284 13.1486 5.97892C12.9325 6.19501 12.6395 6.31655 12.3339 6.31688ZM7.15103 4.50846C7.11065 4.54883 7.08795 4.60358 7.08789 4.66069C7.09508 4.71909 7.09114 4.79484 7.08695 4.87519C7.07493 5.106 7.06093 5.37477 7.30327 5.37939H12.3339C12.3909 5.37935 12.4457 5.35667 12.486 5.31634C12.5264 5.27601 12.5491 5.22131 12.5493 5.16423C12.5421 5.10584 12.546 5.03008 12.5502 4.94972V4.94971V4.94971C12.5622 4.71882 12.5762 4.44991 12.3339 4.44531H7.30327C7.24616 4.44537 7.19141 4.46808 7.15103 4.50846ZM18.0985 6.53368C18.5204 6.52905 18.9235 6.3582 19.2202 6.05821C19.5169 5.75822 19.6834 5.3533 19.6833 4.93136C19.6833 4.50943 19.5169 4.10452 19.2202 3.80454C18.9235 3.50456 18.5204 3.33372 18.0985 3.3291C17.6766 3.33373 17.2735 3.50458 16.9768 3.80457C16.6801 4.10456 16.5137 4.50948 16.5137 4.93142C16.5137 5.35335 16.6801 5.75826 16.9768 6.05824C17.2736 6.35822 17.6766 6.52906 18.0985 6.53368ZM18.0985 4.2666C18.2732 4.26906 18.4399 4.34018 18.5626 4.46459C18.6853 4.589 18.754 4.75669 18.754 4.9314C18.754 5.10612 18.6852 5.2738 18.5626 5.39821C18.4399 5.52261 18.2732 5.59372 18.0985 5.59617C17.9238 5.59371 17.7571 5.52259 17.6344 5.39818C17.5118 5.27378 17.443 5.10608 17.443 4.93137C17.443 4.75666 17.5118 4.58897 17.6345 4.46457C17.7571 4.34017 17.9238 4.26905 18.0985 4.2666ZM23.3914 6.03902C23.0948 6.33899 22.6918 6.5099 22.27 6.51463C21.8482 6.50991 21.4452 6.33902 21.1486 6.03905C20.8519 5.73908 20.6856 5.33424 20.6855 4.91237C20.6855 4.49051 20.8519 4.08565 21.1485 3.78568C21.4451 3.4857 21.8481 3.3148 22.2699 3.31006C22.6918 3.31478 23.0947 3.48567 23.3914 3.78564C23.688 4.08561 23.8544 4.49045 23.8544 4.91232C23.8544 5.33419 23.688 5.73904 23.3914 6.03902ZM22.7337 4.44572C22.6112 4.32132 22.4446 4.25014 22.27 4.24756C22.0952 4.24992 21.9284 4.32098 21.8057 4.44539C21.6829 4.5698 21.6141 4.73755 21.6141 4.91232C21.6141 5.08709 21.6829 5.25484 21.8057 5.37926C21.9284 5.50368 22.0952 5.57476 22.27 5.57713C22.4446 5.57456 22.6112 5.50339 22.7337 5.379C22.8563 5.25461 22.925 5.08699 22.925 4.91236C22.925 4.73773 22.8563 4.57011 22.7337 4.44572Z"/>
  </mask>
  <path fill-rule="evenodd" clip-rule="evenodd" d="M5.95316 1.875H24.0493C24.5231 1.87552 24.9773 2.06397 25.3124 2.39901C25.6474 2.73404 25.8359 3.1883 25.8364 3.66211V26.3379C25.8359 26.8117 25.6474 27.266 25.3124 27.601C24.9773 27.936 24.5231 28.1245 24.0493 28.125H5.95317C5.47937 28.1244 5.02514 27.936 4.6901 27.6009C4.35507 27.2659 4.16659 26.8117 4.16602 26.3379C4.17867 26.3201 4.16605 3.66211 4.16605 3.66211C4.16661 3.18831 4.35507 2.73408 4.6901 2.39905C5.02513 2.06402 5.47936 1.87556 5.95316 1.875ZM24.8989 7.03125V3.66211C24.8986 3.43686 24.809 3.22093 24.6497 3.06165C24.4904 2.90238 24.2745 2.81278 24.0493 2.8125H15.4678V7.03125H24.8989ZM14.5303 2.8125H5.95317C5.72792 2.81274 5.51195 2.90233 5.35267 3.06161C5.19339 3.22089 5.1038 3.43685 5.10356 3.66211V7.03125H14.5303V2.8125ZM5.95317 27.1875H24.0493C24.2745 27.1872 24.4904 27.0976 24.6497 26.9383C24.809 26.7791 24.8986 26.5631 24.8989 26.3379V7.96875H5.10356V26.3379C5.1038 26.5631 5.19339 26.7791 5.35267 26.9384C5.51195 27.0977 5.72792 27.1873 5.95317 27.1875ZM9.13064 11.7084C10.6876 10.1514 12.7986 9.27564 15.0005 9.27319C17.2024 9.27569 19.3133 10.1515 20.8703 11.7084C22.4272 13.2653 23.303 15.3763 23.3055 17.5781C22.851 28.5928 7.15147 28.5957 6.69531 17.5782C6.69782 15.3763 7.57365 13.2653 9.13064 11.7084ZM9.79324 22.7854C11.1745 24.1666 13.0472 24.9435 15.0005 24.9457C16.9538 24.9434 18.8265 24.1665 20.2077 22.7853C21.5888 21.4042 22.3658 19.5315 22.368 17.5782C21.9648 7.80693 8.03748 7.80433 7.63281 17.5782C7.63504 19.5315 8.412 21.4042 9.79324 22.7854ZM15.0012 11.6453C13.4283 11.647 11.9202 12.2727 10.808 13.3849C9.69576 14.4972 9.07013 16.0052 9.06836 17.5781C9.39422 25.4488 20.6094 25.4466 20.9341 17.5781C20.9323 16.0051 20.3066 14.4971 19.1944 13.3849C18.0822 12.2727 16.5741 11.647 15.0012 11.6453ZM15.0012 22.5735C13.6768 22.5719 12.4071 22.0452 11.4706 21.1087C10.5342 20.1722 10.0074 18.9025 10.0059 17.5781C10.2804 10.9511 19.7232 10.953 19.9966 17.5781C19.9951 18.9025 19.4683 20.1723 18.5318 21.1087C17.5953 22.0452 16.3256 22.572 15.0012 22.5735ZM12.3339 6.31688H7.30327C6.99765 6.31655 6.70463 6.19501 6.4885 5.97893C6.27237 5.76284 6.15078 5.46985 6.15039 5.16423V4.66069C6.15077 4.35504 6.27235 4.06202 6.48848 3.8459C6.7046 3.62977 6.99762 3.50819 7.30327 3.50781H12.3339C12.6395 3.50819 12.9325 3.62977 13.1487 3.8459C13.3648 4.06202 13.4864 4.35504 13.4867 4.66069V5.16422C13.4864 5.46984 13.3648 5.76284 13.1486 5.97892C12.9325 6.19501 12.6395 6.31655 12.3339 6.31688ZM7.15103 4.50846C7.11065 4.54883 7.08795 4.60358 7.08789 4.66069C7.09508 4.71909 7.09114 4.79484 7.08695 4.87519C7.07493 5.106 7.06093 5.37477 7.30327 5.37939H12.3339C12.3909 5.37935 12.4457 5.35667 12.486 5.31634C12.5264 5.27601 12.5491 5.22131 12.5493 5.16423C12.5421 5.10584 12.546 5.03008 12.5502 4.94972V4.94971V4.94971C12.5622 4.71882 12.5762 4.44991 12.3339 4.44531H7.30327C7.24616 4.44537 7.19141 4.46808 7.15103 4.50846ZM18.0985 6.53368C18.5204 6.52905 18.9235 6.3582 19.2202 6.05821C19.5169 5.75822 19.6834 5.3533 19.6833 4.93136C19.6833 4.50943 19.5169 4.10452 19.2202 3.80454C18.9235 3.50456 18.5204 3.33372 18.0985 3.3291C17.6766 3.33373 17.2735 3.50458 16.9768 3.80457C16.6801 4.10456 16.5137 4.50948 16.5137 4.93142C16.5137 5.35335 16.6801 5.75826 16.9768 6.05824C17.2736 6.35822 17.6766 6.52906 18.0985 6.53368ZM18.0985 4.2666C18.2732 4.26906 18.4399 4.34018 18.5626 4.46459C18.6853 4.589 18.754 4.75669 18.754 4.9314C18.754 5.10612 18.6852 5.2738 18.5626 5.39821C18.4399 5.52261 18.2732 5.59372 18.0985 5.59617C17.9238 5.59371 17.7571 5.52259 17.6344 5.39818C17.5118 5.27378 17.443 5.10608 17.443 4.93137C17.443 4.75666 17.5118 4.58897 17.6345 4.46457C17.7571 4.34017 17.9238 4.26905 18.0985 4.2666ZM23.3914 6.03902C23.0948 6.33899 22.6918 6.5099 22.27 6.51463C21.8482 6.50991 21.4452 6.33902 21.1486 6.03905C20.8519 5.73908 20.6856 5.33424 20.6855 4.91237C20.6855 4.49051 20.8519 4.08565 21.1485 3.78568C21.4451 3.4857 21.8481 3.3148 22.2699 3.31006C22.6918 3.31478 23.0947 3.48567 23.3914 3.78564C23.688 4.08561 23.8544 4.49045 23.8544 4.91232C23.8544 5.33419 23.688 5.73904 23.3914 6.03902ZM22.7337 4.44572C22.6112 4.32132 22.4446 4.25014 22.27 4.24756C22.0952 4.24992 21.9284 4.32098 21.8057 4.44539C21.6829 4.5698 21.6141 4.73755 21.6141 4.91232C21.6141 5.08709 21.6829 5.25484 21.8057 5.37926C21.9284 5.50368 22.0952 5.57476 22.27 5.57713C22.4446 5.57456 22.6112 5.50339 22.7337 5.379C22.8563 5.25461 22.925 5.08699 22.925 4.91236C22.925 4.73773 22.8563 4.57011 22.7337 4.44572Z" fill="#070E05"/>
  <path d="M24.0493 1.875L24.0495 1.675H24.0493V1.875ZM5.95316 1.875V1.675L5.95293 1.675L5.95316 1.875ZM25.3124 2.39901L25.4538 2.25759V2.25759L25.3124 2.39901ZM25.8364 3.66211H26.0364V3.66189L25.8364 3.66211ZM25.8364 26.3379L26.0364 26.3381V26.3379H25.8364ZM25.3124 27.601L25.4538 27.7424L25.4538 27.7424L25.3124 27.601ZM24.0493 28.125V28.325H24.0495L24.0493 28.125ZM5.95317 28.125L5.95293 28.325H5.95317V28.125ZM4.6901 27.6009L4.83152 27.4595L4.6901 27.6009ZM4.16602 26.3379L4.00318 26.2218L3.96594 26.274L3.96602 26.3381L4.16602 26.3379ZM4.16605 3.66211L3.96605 3.66187L3.96605 3.66222L4.16605 3.66211ZM4.6901 2.39905L4.83152 2.54047L4.6901 2.39905ZM24.8989 3.66211H25.0989V3.66186L24.8989 3.66211ZM24.8989 7.03125V7.23125H25.0989V7.03125H24.8989ZM24.6497 3.06165L24.7911 2.92023L24.7911 2.92023L24.6497 3.06165ZM24.0493 2.8125L24.0495 2.6125H24.0493V2.8125ZM15.4678 2.8125V2.6125H15.2678V2.8125H15.4678ZM15.4678 7.03125H15.2678V7.23125H15.4678V7.03125ZM5.95317 2.8125V2.6125L5.95296 2.6125L5.95317 2.8125ZM14.5303 2.8125H14.7303V2.6125H14.5303V2.8125ZM5.10356 3.66211L4.90356 3.6619V3.66211H5.10356ZM5.10356 7.03125H4.90356V7.23125H5.10356V7.03125ZM14.5303 7.03125V7.23125H14.7303V7.03125H14.5303ZM24.0493 27.1875V27.3875H24.0495L24.0493 27.1875ZM5.95317 27.1875L5.95296 27.3875H5.95317V27.1875ZM24.6497 26.9383L24.5083 26.7969L24.6497 26.9383ZM24.8989 26.3379L25.0989 26.3381V26.3379H24.8989ZM24.8989 7.96875H25.0989V7.76875H24.8989V7.96875ZM5.10356 7.96875V7.76875H4.90356V7.96875H5.10356ZM5.10356 26.3379H4.90356L4.90356 26.3381L5.10356 26.3379ZM15.0005 9.27319L15.0007 9.07319L15.0003 9.07319L15.0005 9.27319ZM9.13064 11.7084L8.98922 11.5669L9.13064 11.7084ZM20.8703 11.7084L21.0117 11.567L20.8703 11.7084ZM23.3055 17.5781L23.5055 17.5864L23.5055 17.5779L23.3055 17.5781ZM6.69531 17.5782L6.49513 17.5779L6.49548 17.5864L6.69531 17.5782ZM15.0005 24.9457L15.0003 25.1457H15.0007L15.0005 24.9457ZM9.79324 22.7854L9.65182 22.9268H9.65182L9.79324 22.7854ZM20.2077 22.7853L20.0662 22.6439L20.2077 22.7853ZM22.368 17.5782L22.5682 17.5785L22.5678 17.57L22.368 17.5782ZM7.63281 17.5782L7.4328 17.5699L7.43281 17.5784L7.63281 17.5782ZM10.808 13.3849L10.6666 13.2435L10.808 13.3849ZM15.0012 11.6453L15.0014 11.4453L15.001 11.4453L15.0012 11.6453ZM9.06836 17.5781L8.86818 17.5779L8.86853 17.5864L9.06836 17.5781ZM20.9341 17.5781L21.1341 17.5863L21.1341 17.5778L20.9341 17.5781ZM19.1944 13.3849L19.053 13.5263L19.1944 13.3849ZM15.0012 22.5735L15.001 22.7735H15.0014L15.0012 22.5735ZM10.0059 17.5781L9.80585 17.5698L9.80586 17.5783L10.0059 17.5781ZM19.9966 17.5781L20.1967 17.5784L20.1964 17.5699L19.9966 17.5781ZM7.30327 6.31688L7.30305 6.51688H7.30327V6.31688ZM12.3339 6.31688V6.51688L12.3341 6.51688L12.3339 6.31688ZM6.4885 5.97893L6.34709 6.12036L6.4885 5.97893ZM6.15039 5.16423H5.95039L5.95039 5.16448L6.15039 5.16423ZM6.15039 4.66069L5.95039 4.66044V4.66069H6.15039ZM6.48848 3.8459L6.34706 3.70448V3.70448L6.48848 3.8459ZM7.30327 3.50781V3.30781L7.30302 3.30781L7.30327 3.50781ZM12.3339 3.50781L12.3341 3.30781H12.3339V3.50781ZM13.4867 4.66069H13.6867V4.66044L13.4867 4.66069ZM13.4867 5.16422L13.6867 5.16447V5.16422H13.4867ZM13.1486 5.97892L13.29 6.12036V6.12036L13.1486 5.97892ZM7.08789 4.66069L6.88789 4.6605L6.88788 4.67286L6.88939 4.68513L7.08789 4.66069ZM7.15103 4.50846L7.00961 4.36703L7.00961 4.36703L7.15103 4.50846ZM7.08695 4.87519L7.28668 4.8856L7.08695 4.87519ZM7.30327 5.37939L7.29945 5.57939H7.30327V5.37939ZM12.3339 5.37939V5.57939H12.334L12.3339 5.37939ZM12.5493 5.16423L12.7493 5.16461L12.7493 5.15215L12.7478 5.13979L12.5493 5.16423ZM12.5502 4.94972L12.7502 4.96013V4.94972H12.5502ZM12.5502 4.94971L12.3502 4.9393V4.94971H12.5502ZM12.3339 4.44531L12.3377 4.24531H12.3339V4.44531ZM7.30327 4.44531V4.24531L7.30308 4.24531L7.30327 4.44531ZM19.2202 6.05821L19.3624 6.19885L19.2202 6.05821ZM18.0985 6.53368L18.0963 6.73371L18.1007 6.73367L18.0985 6.53368ZM19.6833 4.93136L19.8833 4.93136L19.6833 4.93136ZM19.2202 3.80454L19.078 3.94518H19.078L19.2202 3.80454ZM18.0985 3.3291L18.1007 3.12907L18.0963 3.12911L18.0985 3.3291ZM16.9768 3.80457L17.119 3.94522L16.9768 3.80457ZM16.9768 6.05824L16.8346 6.19889H16.8346L16.9768 6.05824ZM18.5626 4.46459L18.705 4.32417V4.32417L18.5626 4.46459ZM18.0985 4.2666L18.1013 4.06654L18.0957 4.06662L18.0985 4.2666ZM18.754 4.9314L18.954 4.93141V4.93141L18.754 4.9314ZM18.0985 5.59617L18.0957 5.79623L18.1013 5.79615L18.0985 5.59617ZM17.6344 5.39818L17.7768 5.25776L17.6344 5.39818ZM17.443 4.93137L17.643 4.93138V4.93138L17.443 4.93137ZM17.6345 4.46457L17.492 4.32414V4.32414L17.6345 4.46457ZM22.27 6.51463L22.2677 6.71467L22.2722 6.71462L22.27 6.51463ZM23.3914 6.03902L23.2492 5.89839V5.89839L23.3914 6.03902ZM21.1486 6.03905L21.2908 5.89843V5.89843L21.1486 6.03905ZM20.6855 4.91237L20.8855 4.91237L20.6855 4.91237ZM22.2699 3.31006L22.2722 3.11002L22.2677 3.11007L22.2699 3.31006ZM23.3914 3.78564L23.5336 3.64501V3.64501L23.3914 3.78564ZM23.8544 4.91232L23.6544 4.91232V4.91232L23.8544 4.91232ZM22.27 4.24756L22.273 4.0475L22.2673 4.04758L22.27 4.24756ZM21.8057 4.44539L21.6633 4.30492V4.30493L21.8057 4.44539ZM21.8057 5.37926L21.6633 5.51971L21.6633 5.51972L21.8057 5.37926ZM22.27 5.57713L22.2672 5.7772L22.2729 5.77711L22.27 5.57713ZM22.925 4.91236L22.725 4.91236V4.91236L22.925 4.91236ZM24.0493 1.675H5.95316V2.075H24.0493V1.675ZM25.4538 2.25759C25.0813 1.8851 24.5763 1.67558 24.0495 1.675L24.049 2.075C24.4699 2.07546 24.8734 2.24285 25.1709 2.54043L25.4538 2.25759ZM26.0364 3.66189C26.0358 3.13511 25.8263 2.63007 25.4538 2.25759L25.1709 2.54043C25.4685 2.83801 25.6359 3.24149 25.6364 3.66233L26.0364 3.66189ZM26.0364 26.3379V3.66211H25.6364V26.3379H26.0364ZM25.4538 27.7424C25.8263 27.3699 26.0358 26.8649 26.0364 26.3381L25.6364 26.3377C25.6359 26.7585 25.4685 27.162 25.1709 27.4596L25.4538 27.7424ZM24.0495 28.325C24.5763 28.3244 25.0813 28.1149 25.4538 27.7424L25.1709 27.4596C24.8734 27.7571 24.4699 27.9245 24.049 27.925L24.0495 28.325ZM5.95317 28.325H24.0493V27.925H5.95317V28.325ZM4.54868 27.7424C4.92116 28.1148 5.42617 28.3244 5.95293 28.325L5.95341 27.925C5.53257 27.9245 5.12911 27.7571 4.83152 27.4595L4.54868 27.7424ZM3.96602 26.3381C3.96666 26.8649 4.1762 27.3699 4.54868 27.7424L4.83152 27.4595C4.53394 27.1619 4.36653 26.7585 4.36602 26.3376L3.96602 26.3381ZM4.16605 3.66211C3.96605 3.66222 3.96605 3.66231 3.96605 3.66248C3.96605 3.66265 3.96605 3.66291 3.96605 3.66326C3.96605 3.66394 3.96605 3.66498 3.96606 3.66635C3.96606 3.66909 3.96606 3.6732 3.96606 3.67864C3.96607 3.68953 3.96608 3.70578 3.96609 3.72722C3.96611 3.77009 3.96615 3.8337 3.96619 3.91668C3.96628 4.08264 3.96641 4.32604 3.96657 4.63583C3.96689 5.25542 3.96733 6.14057 3.96783 7.2028C3.96881 9.32726 3.96999 12.1601 3.97078 14.9934C3.97157 17.8268 3.97196 20.6606 3.97136 22.7873C3.97106 23.8506 3.97052 24.737 3.96965 25.3582C3.96922 25.6688 3.96871 25.9129 3.9681 26.0796C3.9678 26.163 3.96748 26.2267 3.96714 26.2697C3.96696 26.2912 3.96679 26.3071 3.96662 26.3173C3.96653 26.3226 3.96646 26.3255 3.96642 26.3267C3.96639 26.3276 3.96642 26.3262 3.96657 26.3238C3.96668 26.3223 3.96712 26.3172 3.96748 26.314C3.9686 26.306 3.98263 26.2581 4.00318 26.2218L4.32885 26.454C4.34946 26.4176 4.36353 26.3695 4.3647 26.3611C4.3651 26.3574 4.3656 26.3517 4.36575 26.3495C4.366 26.3456 4.36613 26.342 4.3662 26.34C4.36635 26.3354 4.36647 26.3298 4.36656 26.324C4.36676 26.3119 4.36695 26.2947 4.36712 26.2729C4.36747 26.229 4.3678 26.1646 4.3681 26.081C4.3687 25.9139 4.36922 25.6694 4.36965 25.3587C4.37052 24.7374 4.37106 23.8507 4.37136 22.7874C4.37196 20.6606 4.37157 17.8267 4.37078 14.9933C4.36999 12.1599 4.36881 9.32709 4.36783 7.20261C4.36733 6.14037 4.36689 5.25522 4.36657 4.63563C4.36641 4.32583 4.36628 4.08242 4.36619 3.91647C4.36615 3.83349 4.36611 3.76987 4.36609 3.727C4.36608 3.70556 4.36607 3.68931 4.36606 3.67842C4.36606 3.67298 4.36606 3.66887 4.36606 3.66613C4.36605 3.66475 4.36605 3.66372 4.36605 3.66303C4.36605 3.66269 4.36605 3.66243 4.36605 3.66226C4.36605 3.66208 4.36605 3.662 4.16605 3.66211ZM4.54868 2.25763C4.1762 2.6301 3.96667 3.13511 3.96605 3.66187L4.36605 3.66235C4.36655 3.24151 4.53395 2.83805 4.83152 2.54047L4.54868 2.25763ZM5.95293 1.675C5.42617 1.67562 4.92116 1.88515 4.54868 2.25763L4.83152 2.54047C5.1291 2.24289 5.53256 2.0755 5.9534 2.075L5.95293 1.675ZM24.6989 3.66211V7.03125H25.0989V3.66211H24.6989ZM24.5083 3.20307C24.6301 3.3249 24.6987 3.49007 24.6989 3.66236L25.0989 3.66186C25.0985 3.38366 24.9879 3.11695 24.7911 2.92023L24.5083 3.20307ZM24.049 3.0125C24.2213 3.01271 24.3865 3.08125 24.5083 3.20307L24.7911 2.92023C24.5944 2.72351 24.3277 2.61284 24.0495 2.6125L24.049 3.0125ZM15.4678 3.0125H24.0493V2.6125H15.4678V3.0125ZM15.6678 7.03125V2.8125H15.2678V7.03125H15.6678ZM24.8989 6.83125H15.4678V7.23125H24.8989V6.83125ZM5.95317 3.0125H14.5303V2.6125H5.95317V3.0125ZM5.49409 3.20303C5.61592 3.08121 5.7811 3.01268 5.95338 3.0125L5.95296 2.6125C5.67473 2.6128 5.40799 2.72345 5.21125 2.92019L5.49409 3.20303ZM5.30356 3.66232C5.30375 3.49003 5.37227 3.32486 5.49409 3.20303L5.21125 2.92019C5.01451 3.11692 4.90386 3.38367 4.90356 3.6619L5.30356 3.66232ZM5.30356 7.03125V3.66211H4.90356V7.03125H5.30356ZM14.5303 6.83125H5.10356V7.23125H14.5303V6.83125ZM14.3303 2.8125V7.03125H14.7303V2.8125H14.3303ZM24.0493 26.9875H5.95317V27.3875H24.0493V26.9875ZM24.5083 26.7969C24.3865 26.9188 24.2213 26.9873 24.049 26.9875L24.0495 27.3875C24.3277 27.3872 24.5944 27.2765 24.7911 27.0798L24.5083 26.7969ZM24.6989 26.3376C24.6987 26.5099 24.6301 26.6751 24.5083 26.7969L24.7911 27.0798C24.9879 26.8831 25.0985 26.6163 25.0989 26.3381L24.6989 26.3376ZM24.6989 7.96875V26.3379H25.0989V7.96875H24.6989ZM5.10356 8.16875H24.8989V7.76875H5.10356V8.16875ZM5.30356 26.3379V7.96875H4.90356V26.3379H5.30356ZM5.49409 26.797C5.37227 26.6751 5.30375 26.51 5.30356 26.3377L4.90356 26.3381C4.90386 26.6163 5.01451 26.8831 5.21125 27.0798L5.49409 26.797ZM5.95339 26.9875C5.7811 26.9873 5.61592 26.9188 5.49409 26.797L5.21125 27.0798C5.40799 27.2765 5.67473 27.3872 5.95296 27.3875L5.95339 26.9875ZM15.0003 9.07319C12.7454 9.0757 10.5837 9.97254 8.98922 11.5669L9.27206 11.8498C10.7916 10.3303 12.8518 9.47559 15.0007 9.47319L15.0003 9.07319ZM21.0117 11.567C19.4173 9.9726 17.2556 9.07575 15.0007 9.07319L15.0003 9.47319C17.1492 9.47563 19.2093 10.3303 20.7288 11.8498L21.0117 11.567ZM23.5055 17.5779C23.5029 15.3231 22.6061 13.1614 21.0117 11.567L20.7288 11.8498C22.2483 13.3693 23.1031 15.4295 23.1055 17.5783L23.5055 17.5779ZM6.49548 17.5864C6.96223 28.8598 23.0402 28.8565 23.5053 17.5864L23.1057 17.5699C22.6617 28.329 7.34071 28.3316 6.89514 17.5699L6.49548 17.5864ZM8.98922 11.5669C7.39478 13.1613 6.49788 15.3231 6.49531 17.5779L6.89531 17.5784C6.89776 15.4295 7.75252 13.3693 9.27206 11.8498L8.98922 11.5669ZM15.0007 24.7456C13.1004 24.7435 11.2784 23.9877 9.93466 22.644L9.65182 22.9268C11.0705 24.3455 12.994 25.1434 15.0003 25.1457L15.0007 24.7456ZM20.0662 22.6439C18.7225 23.9876 16.9006 24.7435 15.0003 24.7456L15.0007 25.1457C17.007 25.1434 18.9304 24.3454 20.3491 22.9268L20.0662 22.6439ZM22.168 17.578C22.1658 19.4783 21.41 21.3002 20.0662 22.6439L20.3491 22.9268C21.7677 21.5081 22.5657 19.5847 22.568 17.5785L22.168 17.578ZM7.83264 17.5864C8.22671 8.06842 21.7755 8.07067 22.1682 17.5865L22.5678 17.57C22.1541 7.5432 7.84824 7.54024 7.43298 17.5699L7.83264 17.5864ZM9.93466 22.644C8.59087 21.3002 7.83498 19.4783 7.83281 17.5779L7.43281 17.5784C7.4351 19.5847 8.23313 21.5082 9.65182 22.9268L9.93466 22.644ZM10.9494 13.5263C12.0242 12.4515 13.4815 11.847 15.0014 11.8453L15.001 11.4453C13.3751 11.4471 11.8163 12.0938 10.6666 13.2435L10.9494 13.5263ZM9.26836 17.5783C9.27007 16.0584 9.87464 14.6011 10.9494 13.5263L10.6666 13.2435C9.51689 14.3932 8.87019 15.952 8.86836 17.5779L9.26836 17.5783ZM20.7342 17.5698C20.4201 25.1829 9.58345 25.1847 9.26819 17.5698L8.86853 17.5864C9.20498 25.713 20.7987 25.7102 21.1339 17.5863L20.7342 17.5698ZM19.053 13.5263C20.1278 14.6011 20.7323 16.0583 20.7341 17.5783L21.1341 17.5778C21.1322 15.9519 20.4855 14.3931 19.3358 13.2435L19.053 13.5263ZM15.001 11.8453C16.521 11.847 17.9782 12.4515 19.053 13.5263L19.3358 13.2435C18.1861 12.0938 16.6273 11.4471 15.0014 11.4453L15.001 11.8453ZM11.3292 21.2501C12.3032 22.224 13.6236 22.7719 15.001 22.7735L15.0014 22.3735C13.73 22.372 12.5111 21.8663 11.6121 20.9673L11.3292 21.2501ZM9.80586 17.5783C9.80744 18.9557 10.3553 20.2762 11.3292 21.2501L11.6121 20.9673C10.713 20.0682 10.2073 18.8493 10.2059 17.5779L9.80586 17.5783ZM20.1964 17.5699C19.9125 10.6893 10.0911 10.687 9.80603 17.5698L10.2057 17.5864C10.4696 11.2152 19.5339 11.2168 19.7967 17.5864L20.1964 17.5699ZM18.6732 21.2502C19.6472 20.2762 20.195 18.9557 20.1966 17.5784L19.7966 17.5779C19.7951 18.8493 19.2894 20.0683 18.3904 20.9673L18.6732 21.2502ZM15.0014 22.7735C16.3788 22.7719 17.6993 22.2241 18.6732 21.2502L18.3904 20.9673C17.4913 21.8663 16.2724 22.372 15.001 22.3735L15.0014 22.7735ZM7.30327 6.51688H12.3339V6.11688H7.30327V6.51688ZM6.34709 6.12036C6.60068 6.3739 6.94447 6.51649 7.30305 6.51688L7.30348 6.11688C7.05082 6.11661 6.80858 6.01613 6.62991 5.83749L6.34709 6.12036ZM5.95039 5.16448C5.95084 5.52307 6.09351 5.86683 6.34709 6.12036L6.62991 5.83749C6.45123 5.65885 6.35071 5.41664 6.35039 5.16398L5.95039 5.16448ZM5.95039 4.66069V5.16423H6.35039V4.66069H5.95039ZM6.34706 3.70448C6.09348 3.95805 5.95083 4.30184 5.95039 4.66044L6.35039 4.66094C6.3507 4.40825 6.45122 4.166 6.6299 3.98732L6.34706 3.70448ZM7.30302 3.30781C6.94442 3.30826 6.60063 3.45091 6.34706 3.70448L6.6299 3.98732C6.80858 3.80864 7.05083 3.70812 7.30351 3.70781L7.30302 3.30781ZM12.3339 3.30781H7.30327V3.70781H12.3339V3.30781ZM13.2901 3.70448C13.0365 3.45091 12.6927 3.30826 12.3341 3.30781L12.3336 3.70781C12.5863 3.70812 12.8286 3.80864 13.0072 3.98732L13.2901 3.70448ZM13.6867 4.66044C13.6863 4.30184 13.5436 3.95805 13.2901 3.70448L13.0072 3.98732C13.1859 4.166 13.2864 4.40825 13.2867 4.66094L13.6867 4.66044ZM13.6867 5.16422V4.66069H13.2867V5.16422H13.6867ZM13.29 6.12036C13.5436 5.86682 13.6863 5.52306 13.6867 5.16447L13.2867 5.16397C13.2864 5.41663 13.1859 5.65885 13.0072 5.83749L13.29 6.12036ZM12.3341 6.51688C12.6927 6.51649 13.0365 6.37389 13.29 6.12036L13.0072 5.83749C12.8285 6.01613 12.5863 6.11661 12.3337 6.11688L12.3341 6.51688ZM7.28789 4.66088C7.28789 4.65675 7.28954 4.6528 7.29245 4.64988L7.00961 4.36703C6.93177 4.44487 6.888 4.55042 6.88789 4.6605L7.28789 4.66088ZM7.28668 4.8856C7.29053 4.81167 7.2962 4.71592 7.28639 4.63625L6.88939 4.68513C6.89396 4.72227 6.89174 4.77802 6.88722 4.86479L7.28668 4.8856ZM7.30708 5.17943C7.28586 5.17902 7.29038 5.17436 7.29967 5.18276C7.30564 5.18816 7.29992 5.18713 7.29321 5.16147C7.27744 5.10124 7.28015 5.01103 7.28668 4.8856L6.88722 4.86479C6.88173 4.97017 6.87143 5.12975 6.90624 5.26275C6.92482 5.33372 6.96028 5.41517 7.03141 5.47948C7.10586 5.54678 7.19951 5.57745 7.29945 5.57935L7.30708 5.17943ZM12.3339 5.17939H7.30327V5.57939H12.3339V5.17939ZM12.3447 5.17484C12.3418 5.17775 12.3378 5.17939 12.3337 5.17939L12.334 5.57939C12.444 5.57931 12.5495 5.53559 12.6274 5.45784L12.3447 5.17484ZM12.3493 5.16386C12.3492 5.16798 12.3476 5.17193 12.3447 5.17484L12.6274 5.45784C12.7052 5.38008 12.7491 5.27463 12.7493 5.16461L12.3493 5.16386ZM12.3505 4.93933C12.3466 5.01327 12.3409 5.10902 12.3508 5.18868L12.7478 5.13979C12.7432 5.10266 12.7454 5.0469 12.7499 4.96011L12.3505 4.93933ZM12.3502 4.94971V4.94972H12.7502V4.94971H12.3502ZM12.3502 4.94971V4.94971H12.7502V4.94971H12.3502ZM12.3301 4.64528C12.3513 4.64568 12.3467 4.65033 12.3374 4.64193C12.3315 4.63653 12.3372 4.63758 12.3439 4.66328C12.3597 4.72357 12.357 4.81385 12.3505 4.93931L12.7499 4.9601C12.7554 4.85467 12.7657 4.69506 12.7309 4.56203C12.7123 4.49106 12.6769 4.40959 12.6057 4.34527C12.5313 4.27793 12.4376 4.24725 12.3377 4.24535L12.3301 4.64528ZM7.30327 4.64531H12.3339V4.24531H7.30327V4.64531ZM7.29245 4.64988C7.29537 4.64696 7.29933 4.64532 7.30346 4.64531L7.30308 4.24531C7.193 4.24542 7.08745 4.28919 7.00961 4.36703L7.29245 4.64988ZM19.078 5.91756C18.8183 6.18011 18.4656 6.32964 18.0963 6.33369L18.1007 6.73367C18.5753 6.72846 19.0287 6.53628 19.3624 6.19885L19.078 5.91756ZM19.4833 4.93137C19.4833 5.30064 19.3377 5.65502 19.078 5.91756L19.3624 6.19885C19.6962 5.86142 19.8834 5.40596 19.8833 4.93136L19.4833 4.93137ZM19.078 3.94518C19.3377 4.20772 19.4833 4.56209 19.4833 4.93137L19.8833 4.93136C19.8833 4.45676 19.6961 4.00131 19.3624 3.66389L19.078 3.94518ZM18.0963 3.52909C18.4655 3.53313 18.8183 3.68265 19.078 3.94518L19.3624 3.66389C19.0286 3.32647 18.5752 3.1343 18.1007 3.12911L18.0963 3.52909ZM17.119 3.94522C17.3787 3.68267 17.7314 3.53314 18.1007 3.52909L18.0963 3.12911C17.6217 3.13432 17.1683 3.3265 16.8346 3.66393L17.119 3.94522ZM16.7137 4.93141C16.7137 4.56214 16.8593 4.20776 17.119 3.94522L16.8346 3.66393C16.5009 4.00136 16.3137 4.45682 16.3137 4.93142L16.7137 4.93141ZM17.119 5.9176C16.8593 5.65506 16.7137 5.30069 16.7137 4.93141L16.3137 4.93142C16.3137 5.40602 16.5009 5.86147 16.8346 6.19889L17.119 5.9176ZM18.1007 6.33369C17.7315 6.32965 17.3787 6.18014 17.119 5.9176L16.8346 6.19889C17.1684 6.53631 17.6218 6.72848 18.0963 6.73367L18.1007 6.33369ZM18.705 4.32417C18.5454 4.16234 18.3286 4.06982 18.1013 4.06662L18.0957 4.46658C18.2179 4.4683 18.3344 4.51803 18.4202 4.60501L18.705 4.32417ZM18.954 4.93141C18.954 4.70414 18.8646 4.486 18.705 4.32417L18.4202 4.60501C18.506 4.692 18.554 4.80924 18.554 4.9314L18.954 4.93141ZM18.705 5.53863C18.8646 5.37681 18.954 5.15868 18.954 4.93141L18.554 4.9314C18.554 5.05355 18.5059 5.1708 18.4202 5.25778L18.705 5.53863ZM18.1013 5.79615C18.3286 5.79297 18.5454 5.70046 18.705 5.53863L18.4202 5.25778C18.3344 5.34476 18.2178 5.39448 18.0957 5.39619L18.1013 5.79615ZM17.492 5.5386C17.6516 5.70044 17.8684 5.79296 18.0957 5.79615L18.1013 5.39619C17.9792 5.39447 17.8626 5.34475 17.7768 5.25776L17.492 5.5386ZM17.243 4.93137C17.243 5.15863 17.3325 5.37677 17.492 5.5386L17.7768 5.25776C17.6911 5.17078 17.643 5.05353 17.643 4.93138L17.243 4.93137ZM17.492 4.32414C17.3325 4.48597 17.243 4.7041 17.243 4.93137L17.643 4.93138C17.643 4.80922 17.6911 4.69198 17.7769 4.605L17.492 4.32414ZM18.0957 4.06662C17.8685 4.06981 17.6516 4.16232 17.492 4.32414L17.7769 4.605C17.8626 4.51802 17.9792 4.4683 18.1013 4.46658L18.0957 4.06662ZM22.2722 6.71462C22.7467 6.70929 23.2 6.51706 23.5336 6.17964L23.2492 5.89839C22.9896 6.16093 22.6369 6.3105 22.2677 6.31465L22.2722 6.71462ZM21.0063 6.17968C21.34 6.51709 21.7933 6.70931 22.2678 6.71462L22.2722 6.31465C21.903 6.31051 21.5504 6.16095 21.2908 5.89843L21.0063 6.17968ZM20.4855 4.91238C20.4856 5.3869 20.6727 5.84227 21.0063 6.17968L21.2908 5.89843C21.0312 5.6359 20.8856 5.28158 20.8855 4.91237L20.4855 4.91238ZM21.0063 3.64505C20.6727 3.98247 20.4855 4.43785 20.4855 4.91238L20.8855 4.91237C20.8855 4.54316 21.0311 4.18884 21.2907 3.9263L21.0063 3.64505ZM22.2677 3.11007C21.7932 3.1154 21.34 3.30763 21.0063 3.64505L21.2907 3.9263C21.5503 3.66376 21.903 3.51419 22.2722 3.51005L22.2677 3.11007ZM23.5336 3.64501C23.1999 3.3076 22.7467 3.11539 22.2722 3.11007L22.2677 3.51005C22.6369 3.51418 22.9896 3.66374 23.2492 3.92627L23.5336 3.64501ZM24.0544 4.91232C24.0544 4.4378 23.8672 3.98242 23.5336 3.64501L23.2492 3.92627C23.5088 4.1888 23.6544 4.54311 23.6544 4.91232L24.0544 4.91232ZM23.5336 6.17964C23.8673 5.84222 24.0544 5.38684 24.0544 4.91232L23.6544 4.91232C23.6544 5.28154 23.5088 5.63586 23.2492 5.89839L23.5336 6.17964ZM22.267 4.44754C22.3891 4.44934 22.5056 4.49911 22.5913 4.58609L22.8762 4.30535C22.7168 4.14354 22.5001 4.05094 22.273 4.04758L22.267 4.44754ZM21.9481 4.58585C22.0339 4.49888 22.1505 4.44919 22.2727 4.44754L22.2673 4.04758C22.04 4.05065 21.823 4.14307 21.6633 4.30492L21.9481 4.58585ZM21.8141 4.91232C21.8141 4.79013 21.8622 4.67284 21.9481 4.58585L21.6633 4.30493C21.5036 4.46676 21.4141 4.68497 21.4141 4.91231L21.8141 4.91232ZM21.948 5.2388C21.8622 5.15181 21.8141 5.03452 21.8141 4.91232L21.4141 4.91231C21.4141 5.13966 21.5036 5.35787 21.6633 5.51971L21.948 5.2388ZM22.2727 5.37715C22.1505 5.3755 22.0339 5.32579 21.948 5.2388L21.6633 5.51972C21.823 5.68156 22.0399 5.77403 22.2672 5.77712L22.2727 5.37715ZM22.5913 5.23862C22.5056 5.32559 22.3891 5.37535 22.267 5.37716L22.2729 5.77711C22.5 5.77376 22.7167 5.68118 22.8762 5.51937L22.5913 5.23862ZM22.725 4.91236C22.725 5.03446 22.677 5.15165 22.5913 5.23862L22.8762 5.51937C23.0356 5.35757 23.125 5.13953 23.125 4.91237L22.725 4.91236ZM22.5913 4.58609C22.677 4.67306 22.725 4.79026 22.725 4.91236L23.125 4.91237C23.125 4.68521 23.0356 4.46716 22.8762 4.30535L22.5913 4.58609Z" fill="#070E05" mask="url(#path-1-outside-1_444_8097)"/>
</svg>