<svg xmlns="http://www.w3.org/2000/svg" width="36" height="36" viewBox="0 0 36 36" fill="none">
  <path d="M32.2262 15.0405C24.6744 7.88379 13.0471 7.50711 5.06726 13.9117C4.62462 14.267 4.19304 14.6432 3.77385 15.0405C3.32288 15.4679 2.61083 15.4488 2.18343 14.9978C1.75605 14.5468 1.77518 13.8348 2.22615 13.4074C2.69016 12.9676 3.16823 12.5508 3.65885 12.157C12.5086 5.05419 25.3988 5.47052 33.7738 13.4074C34.2248 13.8348 34.2439 14.5468 33.8166 14.9978C33.3892 15.4488 32.677 15.4679 32.2262 15.0405Z" fill="white"/>
  <path d="M6.70451 18.5537C12.9428 12.3154 23.0571 12.3154 29.2955 18.5537C29.7348 18.9931 29.7348 19.7054 29.2955 20.1448C28.8561 20.5841 28.1439 20.5841 27.7046 20.1448C22.3449 14.7851 13.6552 14.7851 8.2955 20.1448C7.85615 20.5841 7.14385 20.5841 6.70451 20.1448C6.26516 19.7054 6.26516 18.9931 6.70451 18.5537Z" fill="white"/>
  <path d="M11.2045 23.4398C14.9576 19.6868 21.0425 19.6868 24.7955 23.4398C25.2348 23.8791 25.2348 24.5915 24.7955 25.0308C24.3561 25.4702 23.6439 25.4702 23.2046 25.0308C20.3301 22.1564 15.6699 22.1564 12.7955 25.0308C12.3562 25.4702 11.6438 25.4702 11.2045 25.0308C10.7652 24.5915 10.7652 23.8791 11.2045 23.4398Z" fill="white"/>
  <path d="M18 30C19.0354 30 19.875 29.1604 19.875 28.125C19.875 27.0894 19.0354 26.25 18 26.25C16.9644 26.25 16.125 27.0894 16.125 28.125C16.125 29.1604 16.9644 30 18 30Z" fill="white"/>
</svg>