<svg xmlns="http://www.w3.org/2000/svg" width="30" height="30" viewBox="0 0 30 30" fill="none">
  <path d="M14.8557 18.7585C14.114 18.7585 13.389 18.9784 12.7723 19.3905C12.1556 19.8025 11.675 20.3882 11.3912 21.0734C11.1073 21.7587 11.0331 22.5127 11.1778 23.2401C11.3225 23.9675 11.6796 24.6357 12.2041 25.1601C12.7285 25.6846 13.3967 26.0417 14.1241 26.1864C14.8515 26.3311 15.6055 26.2569 16.2908 25.973C16.976 25.6892 17.5617 25.2086 17.9737 24.5919C18.3858 23.9752 18.6057 23.2502 18.6057 22.5085C18.6057 21.5139 18.2106 20.5601 17.5074 19.8568C16.8041 19.1536 15.8503 18.7585 14.8557 18.7585ZM14.8557 23.7585C14.6085 23.7585 14.3668 23.6852 14.1612 23.5478C13.9557 23.4105 13.7955 23.2153 13.7009 22.9869C13.6062 22.7584 13.5815 22.5071 13.6297 22.2646C13.678 22.0222 13.797 21.7994 13.9718 21.6246C14.1466 21.4498 14.3694 21.3307 14.6118 21.2825C14.8543 21.2343 15.1056 21.259 15.3341 21.3536C15.5625 21.4483 15.7577 21.6085 15.895 21.814C16.0324 22.0196 16.1057 22.2613 16.1057 22.5085C16.1057 22.84 15.974 23.158 15.7396 23.3924C15.5052 23.6268 15.1872 23.7585 14.8557 23.7585ZM14.8557 13.7585C12.5366 13.7665 10.3139 14.687 8.6682 16.321C8.43539 16.5552 8.30471 16.872 8.30471 17.2022C8.30471 17.5325 8.43539 17.8493 8.6682 18.0835C8.9024 18.3163 9.21922 18.447 9.54945 18.447C9.87968 18.447 10.1965 18.3163 10.4307 18.0835C11.0113 17.5015 11.701 17.0397 12.4603 16.7246C13.2196 16.4095 14.0336 16.2473 14.8557 16.2473C15.6778 16.2473 16.4918 16.4095 17.2511 16.7246C18.0104 17.0397 18.7001 17.5015 19.2807 18.0835C19.5115 18.319 19.826 18.4538 20.1557 18.4585C20.4093 18.4731 20.6614 18.4101 20.8783 18.2778C21.0952 18.1456 21.2666 17.9504 21.3698 17.7182C21.473 17.4861 21.503 17.228 21.4558 16.9784C21.4086 16.7288 21.2865 16.4995 21.1057 16.321C20.2832 15.5044 19.308 14.8578 18.2356 14.4181C17.1632 13.9784 16.0147 13.7543 14.8557 13.7585ZM14.8557 8.7585C11.2107 8.76818 7.71642 10.2144 5.1307 12.7835C5.01415 12.9 4.9217 13.0384 4.85863 13.1907C4.79555 13.343 4.76309 13.5062 4.76309 13.671C4.76309 14.0039 4.89532 14.3231 5.1307 14.5585C5.36608 14.7939 5.68532 14.9261 6.0182 14.9261C6.35108 14.9261 6.67032 14.7939 6.9057 14.5585C9.01508 12.4517 11.8744 11.2684 14.8557 11.2684C17.837 11.2684 20.6963 12.4517 22.8057 14.5585C22.9225 14.6743 23.061 14.766 23.2133 14.8282C23.3656 14.8904 23.5287 14.9219 23.6932 14.921C23.8577 14.9219 24.0208 14.8904 24.1731 14.8282C24.3254 14.766 24.4639 14.6743 24.5807 14.5585C24.6979 14.4423 24.7909 14.304 24.8543 14.1517C24.9178 13.9994 24.9504 13.836 24.9504 13.671C24.9504 13.506 24.9178 13.3426 24.8543 13.1903C24.7909 13.038 24.6979 12.8997 24.5807 12.7835C21.995 10.2144 18.5007 8.76818 14.8557 8.7585ZM28.1182 9.246C26.3769 7.50362 24.3094 6.12144 22.0338 5.17841C19.7582 4.23538 17.319 3.75 14.8557 3.75C12.3924 3.75 9.95325 4.23538 7.67761 5.17841C5.40197 6.12144 3.33446 7.50362 1.5932 9.246C1.35782 9.48138 1.22559 9.80062 1.22559 10.1335C1.22559 10.4664 1.35782 10.7856 1.5932 11.021C1.82858 11.2564 2.14782 11.3886 2.4807 11.3886C2.81358 11.3886 3.13282 11.2564 3.3682 11.021C6.41542 7.97536 10.5474 6.26447 14.8557 6.26447C19.164 6.26447 23.296 7.97536 26.3432 11.021C26.4594 11.1382 26.5977 11.2312 26.75 11.2946C26.9023 11.3581 27.0657 11.3907 27.2307 11.3907C27.3957 11.3907 27.5591 11.3581 27.7114 11.2946C27.8637 11.2312 28.002 11.1382 28.1182 11.021C28.2354 10.9048 28.3284 10.7665 28.3918 10.6142C28.4553 10.4619 28.4879 10.2985 28.4879 10.1335C28.4879 9.96848 28.4553 9.8051 28.3918 9.65278C28.3284 9.50045 28.2354 9.3622 28.1182 9.246Z" fill="#070E05"/>
</svg>