<svg xmlns="http://www.w3.org/2000/svg" width="30" height="30" viewBox="0 0 30 30" fill="none">
  <g clip-path="url(#clip0_444_8114)">
    <path fill-rule="evenodd" clip-rule="evenodd" d="M0.938086 13.9817H29.2316C29.7502 13.9817 30.1697 14.4012 30.1697 14.9198V16.3906C30.1697 16.9186 29.7596 17.3334 29.2316 17.3334H28.7413V29.5286C28.7413 29.7878 28.534 30 28.27 30H26.2901C26.0261 30 25.8187 29.7878 25.8187 29.5286V17.3334H24.8759V21.2837H19.4406V17.3334H18.4978V29.5285C18.4978 29.7877 18.2856 29.9999 18.0264 29.9999H16.0465C15.7825 29.9999 15.5751 29.7877 15.5751 29.5285V26.356H4.35574V29.5285C4.35574 29.7877 4.14838 29.9999 3.88436 29.9999H1.90447C1.6452 29.9999 1.43309 29.7877 1.43309 29.5285V17.3334H0.938086C0.419531 17.3334 0 16.9091 0 16.3905V14.9198C0 14.4012 0.419531 13.9817 0.938086 13.9817ZM21.1659 19.7799H23.1553C23.4145 19.7799 23.6266 19.5678 23.6266 19.3085C23.6266 19.0446 23.4145 18.8372 23.1553 18.8372H21.1659C20.9067 18.8372 20.6946 19.0445 20.6946 19.3085C20.6946 19.5678 20.9067 19.7799 21.1659 19.7799ZM4.35574 23.4333H15.5751V17.3334H4.35574V23.4333ZM13.0342 12.0537H8.76809C8.17881 12.0537 7.69793 11.5775 7.69793 10.9884V9.25833V9.25364V1.0701C7.69793 0.48082 8.17881 0 8.77277 0H21.4015C21.8399 0 22.2406 0.273398 22.4009 0.678808C22.448 0.810819 22.4716 0.942714 22.4716 1.07004V10.9883C22.4716 11.5775 21.9907 12.0537 21.4015 12.0537H17.1353C17.1966 12.4449 17.3428 12.7702 17.5737 13.0389H16.4565C16.3151 12.742 16.2255 12.412 16.1831 12.0537H13.9864C13.944 12.412 13.8544 12.742 13.713 13.0389H12.5958C12.8268 12.7702 12.9729 12.4449 13.0342 12.0537ZM8.77277 0.942714C8.70205 0.942714 8.64076 0.999315 8.64076 1.07004V8.78208H21.5289V1.07004C21.5289 1.05117 21.5289 1.0323 21.5194 1.01818C21.5101 0.985136 21.4581 0.942714 21.4016 0.942714H8.77277ZM24.875 27.1243H19.4397V22.2264H24.875V27.1243ZM23.1543 23.7302H21.165C20.9058 23.7302 20.6936 23.9423 20.6936 24.2016C20.6936 24.4656 20.9058 24.673 21.165 24.673H23.1543C23.4135 24.673 23.6257 24.4656 23.6257 24.2016C23.6257 23.9423 23.4135 23.7302 23.1543 23.7302Z" fill="#070E05"/>
  </g>
  <defs>
    <clipPath id="clip0_444_8114">
      <rect width="30" height="30" fill="white"/>
    </clipPath>
  </defs>
</svg>